<mxfile host="65bd71144e">
    <diagram id="H27V_xuBdUyC7cb8BGNy" name="Page-1">
        <mxGraphModel dx="1891" dy="1537" grid="1" gridSize="10" guides="1" tooltips="1" connect="1" arrows="0" fold="1" page="1" pageScale="1" pageWidth="827" pageHeight="1169" math="0" shadow="0">
            <root>
                <mxCell id="0"/>
                <mxCell id="1" parent="0"/>
                <mxCell id="39" value="" style="group;fillColor=#60a917;container=0;fontColor=#ffffff;strokeColor=#2D7600;" parent="1" vertex="1" connectable="0">
                    <mxGeometry x="10" y="30" width="150" height="290" as="geometry"/>
                </mxCell>
                <mxCell id="25" value="" style="group;fillColor=#60a917;container=0;fontColor=#ffffff;strokeColor=#2D7600;" parent="1" vertex="1" connectable="0">
                    <mxGeometry x="200" y="30" width="400" height="290" as="geometry"/>
                </mxCell>
                <mxCell id="2" value="&lt;span style=&quot;background-color: rgb(3 , 3 , 3)&quot;&gt;ORACLE&lt;/span&gt;" style="verticalLabelPosition=bottom;html=1;verticalAlign=top;strokeWidth=1;align=center;outlineConnect=0;dashed=0;outlineConnect=0;shape=mxgraph.aws3d.oracleDbServer;fillColor=#ffffff;strokeColor=#5E5E5E;aspect=fixed;" parent="1" vertex="1">
                    <mxGeometry x="40" y="200" width="55.49" height="60" as="geometry"/>
                </mxCell>
                <mxCell id="3" value="DB2" style="aspect=fixed;perimeter=ellipsePerimeter;html=1;align=center;shadow=0;dashed=0;spacingTop=3;image;image=img/lib/active_directory/mainframe_host.svg;" parent="1" vertex="1">
                    <mxGeometry x="40" y="111.42" width="36" height="50" as="geometry"/>
                </mxCell>
                <mxCell id="4" value="" style="shape=image;verticalLabelPosition=bottom;labelBackgroundColor=#ffffff;verticalAlign=top;aspect=fixed;imageAspect=0;image=data:image/svg+xml,PHN2ZyB4bWxuczppbmtzY2FwZT0iaHR0cDovL3d3dy5pbmtzY2FwZS5vcmcvbmFtZXNwYWNlcy9pbmtzY2FwZSIgeG1sbnM6c29kaXBvZGk9Imh0dHA6Ly9zb2RpcG9kaS5zb3VyY2Vmb3JnZS5uZXQvRFREL3NvZGlwb2RpLTAuZHRkIiB4bWxucz0iaHR0cDovL3d3dy53My5vcmcvMjAwMC9zdmciIHhtbG5zOnN2Zz0iaHR0cDovL3d3dy53My5vcmcvMjAwMC9zdmciIHZlcnNpb249IjEuMSIgaWQ9ImxheWVyIiB4PSIwcHgiIHk9IjBweCIgdmlld0JveD0iMCAwIDYwMCAxMTQiIHhtbDpzcGFjZT0icHJlc2VydmUiIHNvZGlwb2RpOmRvY25hbWU9IlRlcmFkYXRhX2xvZ29fMjAxOC5zdmciIHdpZHRoPSI2MDAiIGhlaWdodD0iMTE0IiBpbmtzY2FwZTp2ZXJzaW9uPSIxLjEuMSAoM2JmNWFlMGQyNSwgMjAyMS0wOS0yMCkiPjxkZWZzIGlkPSJkZWZzNjEiLz48c29kaXBvZGk6bmFtZWR2aWV3IGlkPSJuYW1lZHZpZXc1OSIgcGFnZWNvbG9yPSIjZmZmZmZmIiBib3JkZXJjb2xvcj0iIzY2NjY2NiIgYm9yZGVyb3BhY2l0eT0iMS4wIiBpbmtzY2FwZTpwYWdlc2hhZG93PSIyIiBpbmtzY2FwZTpwYWdlb3BhY2l0eT0iMC4wIiBpbmtzY2FwZTpwYWdlY2hlY2tlcmJvYXJkPSIwIiBzaG93Z3JpZD0iZmFsc2UiIGlua3NjYXBlOnpvb209IjEuODA4MjgyMiIgaW5rc2NhcGU6Y3g9IjMwNC40MzI1NyIgaW5rc2NhcGU6Y3k9IjYyLjIxMzc0IiBpbmtzY2FwZTp3aW5kb3ctd2lkdGg9IjI1NjAiIGlua3NjYXBlOndpbmRvdy1oZWlnaHQ9IjEzODciIGlua3NjYXBlOndpbmRvdy14PSIxOTEyIiBpbmtzY2FwZTp3aW5kb3cteT0iLTgiIGlua3NjYXBlOndpbmRvdy1tYXhpbWl6ZWQ9IjEiIGlua3NjYXBlOmN1cnJlbnQtbGF5ZXI9ImxheWVyIi8+CjxzdHlsZSB0eXBlPSJ0ZXh0L2NzcyIgaWQ9InN0eWxlMzYiPgoJLnN0MHtmaWxsOiMzRDQ5NTI7fQoJLnN0MXtmaWxsOiNGMDZGMzc7fQo8L3N0eWxlPgo8ZyBpZD0iZzU2IiB0cmFuc2Zvcm09InRyYW5zbGF0ZSgtMjEuNSwtMjYzLjgpIj4KCTxwYXRoIGNsYXNzPSJzdDAiIGQ9Ik0gMTUwLjMsMzQwLjcgSCA4OSBjIDIuMSwxMS42IDEwLjMsMTguNyAyMC4yLDE4LjcgNi4zLDAgMTQuMiwtMC44IDIwLC0xMC43IGwgMTksNCBjIC03LjEsMTYuOCAtMjEuNSwyNC45IC0zOS4xLDI0LjkgLTIyLjgsMCAtNDEuMywtMTcuMyAtNDEuMywtNDIuNiAwLC0yNS4zIDE4LjYsLTQyLjggNDEuNiwtNDIuOCAyMS41LDAgNDAsMTYuNiA0MC44LDQxLjIgdiA3LjMgeiBtIC02MC43LC0xNSBoIDM4LjkgYyAtMi43LC0xMC4zIC0xMC41LC0xNC45IC0xOSwtMTQuOSAtOC4xLDAuMSAtMTcuMyw0LjkgLTE5LjksMTQuOSIgaWQ9InBhdGgzOCIvPgoJPHBhdGggY2xhc3M9InN0MCIgZD0ibSAzNzcuNiwzNzUuMyBoIC0yMS4zIHYgLTYuOSBjIC02LjUsNiAtMTUuMyw5LjQgLTI2LjYsOS40IC0yMC41LDAgLTM5LjUsLTE3LjMgLTM5LjUsLTQyLjYgMCwtMjUuMyAxOSwtNDIuOCAzOS41LC00Mi44IDExLjMsMCAyMC4yLDMuNCAyNi42LDkuNCB2IC0zOCBoIDIxLjMgeiBtIC0yMS4zLC00MC4yIGMgMCwtMTQuOSAtMTEuNSwtMjQuMiAtMjIuOSwtMjQuMiAtMTIuOSwwIC0yMi42LDkuNCAtMjIuNiwyNC4yIDAsMTQuOSA5LjcsMjQgMjIuNiwyNCAxMS41LDAgMjIuOSwtOS4yIDIyLjksLTI0IiBpZD0icGF0aDQwIi8+Cgk8cGF0aCBjbGFzcz0ic3QwIiBkPSJtIDU1MS45LDI5NC45IHYgMCBoIC0yOS40IHYgMTcuOCBoIDI5LjQgYyA4LjIsMCAxMy43LDMuNSAxMy43LDExLjYgdiAxLjMgaCAtMjMuMiBjIC0yMC4zLDAgLTMyLDEwLjMgLTMyLDI1LjggMCwxNS44IDEyLjMsMjYuMyAzMC43LDI2LjMgMTEsMCAxOSwtMy43IDI0LjUsLTkgdiA2LjYgSCA1ODYgdiAtNTIuNiBjIDAsLTE5LjIgLTEzLjUsLTI3LjQgLTM0LjEsLTI3LjggbSAxMy43LDQ3LjggYyAwLDEwLjMgLTkuOCwxOC4xIC0yMS4xLDE4LjEgLTguMiwwIC0xMy43LC0zLjkgLTEzLjcsLTkuOCAwLC01LjUgNC41LC05LjIgMTEuMywtOS4yIGggMjMuNiB2IDAuOSB6IiBpZD0icGF0aDQyIi8+Cgk8cGF0aCBjbGFzcz0ic3QwIiBkPSJtIDQyNiwyOTQuOSB2IDAgaCAtMjkuNCB2IDE3LjggSCA0MjYgYyA4LjIsMCAxMy43LDMuNSAxMy43LDExLjYgdiAxLjMgaCAtMjMuMiBjIC0yMC4zLDAgLTMyLDEwLjMgLTMyLDI1LjggMCwxNS44IDEyLjMsMjYuMyAzMC43LDI2LjMgMTEsMCAxOSwtMy43IDI0LjUsLTkgdiA2LjYgSCA0NjAgdiAtNTIuNiBjIDAsLTE5LjIgLTEzLjUsLTI3LjQgLTM0LC0yNy44IG0gMTMuNyw0Ny44IGMgMCwxMC4zIC05LjgsMTguMSAtMjEuMSwxOC4xIC04LjIsMCAtMTMuNywtMy45IC0xMy43LC05LjggMCwtNS41IDQuNSwtOS4yIDExLjMsLTkuMiBoIDIzLjYgdiAwLjkgeiIgaWQ9InBhdGg0NCIvPgoJPHBhdGggY2xhc3M9InN0MCIgZD0ibSAyNDguOSwyOTQuOSB2IDAgaCAtMjkuNCB2IDE3LjggaCAyOS40IGMgOC4yLDAgMTMuNywzLjUgMTMuNywxMS42IHYgMS4zIGggLTIzLjIgYyAtMjAuMywwIC0zMiwxMC4zIC0zMiwyNS44IDAsMTUuOCAxMi4zLDI2LjMgMzAuNywyNi4zIDExLDAgMTksLTMuNyAyNC41LC05IHYgNi42IEggMjgzIHYgLTUyLjYgYyAwLC0xOS4yIC0xMy41LC0yNy40IC0zNC4xLC0yNy44IG0gMTMuNyw0Ny44IGMgMCwxMC4zIC05LjgsMTguMSAtMjEuMSwxOC4xIC04LjIsMCAtMTMuNywtMy45IC0xMy43LC05LjggMCwtNS41IDQuNSwtOS4yIDExLjMsLTkuMiBoIDIzLjYgdiAwLjkgeiIgaWQ9InBhdGg0NiIvPgoJPHBhdGggY2xhc3M9InN0MCIgZD0ibSAyMDguMSwyOTQuOCBjIC0xMy4xLDAgLTIyLjQsNS4yIC0yOC45LDE0LjYgdiAtMTQuNyBoIC0yMS4zIHYgODAuNSBoIDIxLjMgdiAtMjYgYyAwLC0yMi40IDksLTM2LjUgMjguNywtMzYuNSBoIDEgdiAtMTcuOSBjIC0wLjMsMCAtMC41LDAgLTAuOCwwIiBpZD0icGF0aDQ4Ii8+Cgk8cGF0aCBjbGFzcz0ic3QwIiBkPSJtIDYzLjgsMzU1LjggYyAtMy4yLDEuMiAtNi42LDIgLTkuMiwyIC03LjEsMCAtMTEuOCwtNC4yIC0xMS44LC0xMy45IFYgMzEyLjEgSCA2NC42IFYgMjk0LjcgSCA0Mi44IFYgMjc1IEggMjEuNSB2IDM3LjIgMzMuNCBjIDAsMjIuMSAxMi42LDMyLjEgMzEuNiwzMi4xIDYuNywwIDEzLjIsLTEuNCAyMS40LC01LjkgLTQuMywtNC40IC04LjQsLTkuOCAtMTAuNywtMTYiIGlkPSJwYXRoNTAiLz4KCTxwYXRoIGNsYXNzPSJzdDAiIGQ9Im0gNTAzLjcsMzU3LjYgYyAtMC45LDAuMSAtMS43LDAuMiAtMi40LDAuMiAtNy4xLDAgLTExLjgsLTQuMiAtMTEuOCwtMTMuOSB2IC0zMS44IGggMjIuNCBWIDI5NC43IEggNDg5LjUgViAyNzUgaCAtMjEuMyB2IDM3LjIgMzMuNCBjIDAsMjIuMSAxMi42LDMyLjEgMzEuNiwzMi4xIDQuNywwIDguOCwtMC43IDEzLjcsLTIuNiAtNi4zLC00LjUgLTguNywtMTEuOSAtOS44LC0xNy41IiBpZD0icGF0aDUyIi8+Cgk8cGF0aCBjbGFzcz0ic3QxIiBkPSJtIDYyMS41LDM2MyBjIDAsNy42IC01LjgsMTMuNSAtMTQsMTMuNSAtOC4xLDAgLTE0LC01LjggLTE0LC0xMy41IDAsLTcuMyA1LjgsLTEzLjYgMTQsLTEzLjYgOC4yLDAgMTQsNi40IDE0LDEzLjYiIGlkPSJwYXRoNTQiLz4KPC9nPgo8L3N2Zz4=;" parent="1" vertex="1">
                    <mxGeometry x="20" y="53.2" width="120" height="22.85" as="geometry"/>
                </mxCell>
                <mxCell id="53" style="edgeStyle=none;html=1;exitX=0.5;exitY=0;exitDx=0;exitDy=0;" parent="1" source="23" target="13" edge="1">
                    <mxGeometry relative="1" as="geometry"/>
                </mxCell>
                <mxCell id="23" value="" style="shape=image;verticalLabelPosition=bottom;labelBackgroundColor=#ffffff;verticalAlign=top;aspect=fixed;imageAspect=0;image=data:image/png,iVBORw0KGgoAAAANSUhEUgAAAgAAAAEKCAYAAABkC+0BAAAABGdBTUEAALGPC/xhBQAAACBjSFJNAAB6JgAAgIQAAPoAAACA6AAAdTAAAOpgAAA6mAAAF3CculE8AAAABmJLR0QA/wD/AP+gvaeTAABj00lEQVR42u2deXhbxdXG3zNXspM4CQlbSLwm7A2ExYDRapGE0LAVKAbiAAVKw0c32lIKLZSl0Ba6Ai0tTSlQIDbgFijQpkAIsjYngEshCWUpSWzLCSEsWR1b0p3z/WFDs8i2ZN2RZHl+z8PzEEu6d+7M3DnvnDlzhqDRaDQaTQasmzdl3ziJ+cSoBeFAAGUAtgHYAMYKGPQ36uEXypuiO3Rt5Q+kq0Cj0Wg0QyE6v7RMMn4O0DkAigb5+mYmvkPE6E4tBLQA0Gg0Gs0whAGKziv7uiT8mIBxaf68gyEvq2xYt0TXpBYAGo1Goxkuxr8ORru97F4CLs/gMiYD11c2RO/QNaoFgEaj0WjynFV104vG27c8wuA6a9QE/7KisfO7umZzg9BVoNFoNJpUGGffdKdlxh8AiK7uqC+7Sdes9gBoNBqNJk/pqC+bz8AjSi7OdFlFY8cDupa1ANBoNBpNPhn/eWUzmLAMwGhFt9ghwM6yhs5/69rOHnoJQKPRaDT9T84BYuC3Co0/AIyWhIY1l1SN0jWuBYBGo9Fo8mH2X1/+JRA86pUGHW6LJW7WNZ499BKARqPRaJLy7vyDxhej+20wDsjSLU1B7C5b1LlM1772AGg0Go0mRxTJ7q9m0fgDgCGB+1fVTS/Sta8FgEaj0WhyQEdd2Wgi/lbWb8x0+Fjb5u/oFtACQKPRaDQ5mf7jbIAm5eLWRPjhmguqqnQjaAGg0Wg0mmxPxBkX5/D2YwyR+KVuBcVCS1eBRqPRaHZm42X7jtvRPeojAPYcG6jTyhui/9Atoj0AGo1Go8kCXTuKfLk2/gDAwF06N4AWABqNRqPJlmEgMTtPinKQETP1YUFaAGg0Go0mSzPv2XlUmh+svahyqm4VLQA0Go1Go5B186bsC+DwPCrSaGHKu3TLaAGg0Wg0GoXECUcj7wLE+Yy2eVPO0K2jBYBGo9FoFEEwjs7LcpH47boFU8boFtICQKPRaDQq5trER+Vp0Sri28W1uoW0ANBoNBqNipk246g8Ltv3Oi4sO0i3khYAGo1Go7Fy9u+DDcAheVzEUSxxj24pLQA0Go1GYyFtkyYfDKA4z4s5p2N+2dm6tbQA0Gg0Go1FGML43HAoJzPuev+iSSW6xbQA0Gg0Go01TB8m5SyPJYqu182lBYBGo9ForIDoiOFTVr56zbwph+lG0wJAo9FoNBnDRw6jwhYZZPxGt5kWABqNRqPJgDWXVI1i4GALL7mRCAsAsELBMrttXul5uvWGhk1XgUaj0WhETE4HYFh1PQLeKF8U/WN7fdkMAF9XVW4C/WrjZfsu3u/+D7cWehu9O/eg4tETdhwrIY5hwVUElDFjLwIVAbydgDZJvEaY1FJmRl+lJphaAGg0Go1mEENqrfufQW8AQA+Nur6Yu78IYLKigpfu6B51I4BrCq1NXl1Qbd9v68YakJxNoNlA9/Gy19iD+DOhhU+dLAyAmMAC6BBlH7fX898I9NPyhui7/Yg0jUaj0Yx02utLfwnQdywTAMSXVC7q/DMAtM8rnwfiBoXFjzOLYyob21cN5zZggKLzy46Q4FkCNJsZtQDGZnhZE6A/mkXGt6c+uLZbCwCNRqPR7C4AngfoZKuuJ6U8turRda99+u+2+rKlBJyk8BGayxuiJ5HSmAPr6bxgSrlJxmwQzwZ4FkCTFN3q5QTbz5zWuGbDp3/QSwAajUajAYOOsnBGmIhvHvPmLn8h8XWw/DcAu6JHqI3Wl9WjIboon+v5g7r9xu6w208UELMZmG0CxwJMWZiTn2Cj+GPsw2zyI6E9ABqNRqPBfy+atH+Rad9goZpYWdEY3SOmoG1+2c+IFa7VE96Px4oOO7Bp9eZ8qds1l1SNop64U0DMBvEsANWwMNgy7aZhfL+yMXq79gBoNBqNBvZE8VEgaZ2RIbye9D4l8mZzmziPgUo11g0HFNljtwD4Vi7rs62+YhogZwvQbBlLfJ6IxuXLygQJXLWqbvqvpjetimkBoNFoNCMcIvMIix3CK5L9ccrCdV1t9aXXEOhxZTNc4GvRC0sfKHuk8/Vs1V/7+eUHstEXuAeeCch9esvC+edmZxwwtmjTHADPagGg0Wg0Gku3AArCG/19VtnQ2dReX/qClQGHu2GTUtzDgEdVQOD6ugP2ixfZZzLzbAJmATyV+gz+sBB8jBlaAGg0Go0GAM2w9HJG/wIAAISJr8ve7yg6ephdHfXlX0JDx4NWXG3dgiljEtsMD8CzGZgdB2aAWQzjILqDAB0EqNFoNCMaroPRYS/bCmC0RZf8uKIhus9gX2qvL/8xwD9Q+GgfCRsfWvZQ50dDqZN2e8XRwKcJeNgNYFTh6D36Q8Wijv/THgCNRqMZwbSJyYcI64w/GEhp7Z3ifBvbMQ/AVEWPto808SMAX0upHnYK3OsAzybIiZ89UYFB4E8AvQtAo9FoRjRkCGuPACasTOVr5U3RHe3zyr8D4ieVPRzTFe3zyx+sWNTxyu4frb2wcjLJxGxiMQvg2YAs7TX3XPBtzqB3tQDQaDSakS4ArA4A7GcHQDIqGjueaqsv+wcBpyp6PAPMj0bnl84HEDUlHyNIzGZgFqQ5HSB8llR/BCGFeEkLAI1Go9ESwNoAQHPgAMA97m7SN2HwTKhbY58mmVoAgIjAusHfq3q4bU2fWNNoNBrNCMZKASCLzZ60DuSpeKzjPSb8TDdDluQeYeGn/68FgEaj0YxQNl627zgAVRZecs3+TRu3pfsjEcPtAFbrFlHODjL4T1oAaDQazQhne1fRkbB2O/iQsu+VN0V3EKcWra/JaPZ/187bIrUA0Gg0mhFrEMjSAEBOIwBwDxHQGP0nmJ/WraIGBj6IxYpu3/lvWgBoNBrNyBUAFm8B5JWZ/Nxk+1UAduiWUdLW39z9lEQtADQajWbkTguPsvJygimjA3imPrp2LUA/1Q1jsfEHHq5Y1PHYHu2lq0aj0WhGrGWw0gPQVRaPZhzI1/NJ8c8AvKsbxyqNh7dj8aJvJBVsuno0Go1m5LHu4ikVACZaeMmV1AQz04scvPi/PcxCBwRaY/y3gsUXd3f9awGg0Wg0IxgzYXEKYMZKqy5V2dj+AgN/1a2UWROz5HmVje395mXQAkCj0WhGIJItTQAEFrzCyuvZpPw2gO0FVu0fMfBXMIJZmP1fXfVo598H+o4WABqNRjMCIbL2DACW6aUAHozSR9d1MHDrMK/m7SD8E6BrpJDV5YdE97ePlReDMEWx+f99ZUP0rkFFln4NNBqNZkRiqQAoTpgrrC7gtvhevx5v33wJA4cNkzqNg7GMCC+yoKVbe8Yvn960KrbTrJwS840HAD5QYRmeK1/X+c2URKB+BzQajWZksapuetE4++atAIosuuT6ioaoklltx7yyWia8lMf2ajUBSyR4SSJe/Hx/AXcA0F5f/mOAf6CsJMT/Me1259QH125K5evaA6DRaDQjjL2KNx0uJRVZeMk3VJW1vDHa3F5f+jhA5+dH7fEGgghI8BKblItLH13Xkcqv2uaXfgms0PgDHxLRmakafy0ANBqNZgTC0uIMgMwrVZaXbHS1TOBUAsbloLo2A/ATsCTBcsnUxnVvpXuBjnlltcz/O4VPAd2C+cyyRzr/m86PtADQaDSakSYAgJMsvZ7ACpXlLX8o2tk+v/wWMP8iC9UTA9AC0BJBcklpZ+er5EdiqBeLnl96iCQ8AeuWW/ZsTqbLyhqjLen+UAsAjUajGUF0zCv7IgMXWWqBTH5Ddbk/KNn/7v23brjE4uyFfXoIKwBeQkRL7CIeOODhDZZsP4xeXLqPTNCzAPZWVS/EuLm8saNxSL/Vr4NGo9EU9GyfovVlx4NwNjPOAXCIxbdImEW2cVMfXNudBfFiVUBgOxhLAFoSs8VePOjhDR9YXda+QMsXAHgVtu2iioboRdQrYtJGewA0Go2m0Ix+HYx2W4VDkKzrAM4BUDY0E5ESb2fD+AO9AYFt88sWEePCNH+6DaBlDF4CiCWVDe2tqkVXh33LH1Uaf4DCsU+KvzxU468FgEaj0RQIHXVlo6VNzhYkTm8HziLI/Tkrd+YV2XxOU9q/a6P46QAmDOSVAPB67/Y8uWTj2MnNxy1sjWetLerLbwD4YoV1vjZmxM85eHFHTyZX0QJAo9Fohq/R31va+XQCnc3AHIIYw8jy2i6Lldm83bTGNRva55ffAObf7vRnScDrDLwI0BLbWDM4ZeG6rv99vC5r5WufX34+mG9ReItN0pSnHtSQ+bKFFgAajUYzjIjOLy1jprMAnMVALYFyOo4zzDeyfc/yRR2/a68vsxFTFQSW2WPxpZOb3t+Y87aZV+qQzA8q1GAJZnFe1WPR/1hxMR0EqNFoNHlOW33FNECeQaA6gJ35NHYnYFZNa1jfNtLbaM0FVVWGiC8DaJI6tUVfq2js+J1Vl9MCQKPRaPKMnSP3JeNsAg7N06JuLm+ITswkEK0QeK9u2l52eywC4HPq7kK/rmjo+I6VV9RLABqNRpMPRv9miPa3K5y7R+7n9yyNV4x0488+2DrsPU0AKTT+WFwe77jG6otqAaDRaDS5Mh47b9d7F+cRyQOGmTVdMdLbsGNK6d0AnazwFqt6aNQF1ARTCwCNRqMZxrx/0aSSHmmbS0xndwCnEeReDAzPeXSWdwDkG+3zy68G85UKb7FOEH/+4EX/3aLi4loAaDQajWLWXFI1QcTiJwvQGTETZxMwtiAejDBiBcDaC0pPA/MdCm+xgyTOKXu0M6rqBloAaDQajQKiF5fuYyZwmgDVcSwxB6CiQlsst7H55sg0/lOOEYIeA2AougWD6NLyRzuWK20//ZpqNBqNNayun1xpkDibJJ0jE3ARIAo4Qm79lMZ1H444YTe/tEwyPQugRNU9GPh+5aKOx5QLOP3KajQazdBpq6+YBjLPJ6ZzAByHrKfiyxFMz4+0tv6gbr+xO5ieIWCKunrF/ZWN0Tuy8TxaAGg0Gk2arFswZUx8G51LTJcCshZMIymnygpmNIgE3zWS2pzrYETtxY0EHK1w5v/StsReVwLRrDyTFgAajUaTItHzSw9hg65ObMMFBIwfIanUJBGWQeIplvRExWMd743ItreX/ZKB0xXe4h0Rx7nTm1bFsvVMOhOgRqPRDEJbfcU0InkbGOdBXeBXPhED8BIzP8mG7emqR9rWj+T2b59X/lUQ36PwFh8R4ChviL6bzefSAkCj0Wj6oaOubDQX8fVguhrAqAJ/3O3EWAzCU4ki29+nPrh2k+4BQMe8ss8z4Rmo85jHiDGnvDHanO1n00sAGo1Gk4RofenRElgEVpriNdd8BPDTEOIp6uEXypuiO3TL72T855cdyYzH1NpKuqK8saM5F8+nBYBGo9HsPvDXl50jgYcBjCnEx2PCUwbzk6XxzoCKFLOFwJq6qgPAiWcAjFd2E6afVjR2PJirZ9QCQKPRaHairb60joGGAhsfVxPwrGTRVNHYHh7pB/gMqpDqykazPfEkA5XKbD/w14pDO27I5XNqAaDRaDR9rJ1XOpNAhWD8GcArzHjSZsgnSx9Z97Zu3RQr7maI6Nt4CMCJCm/zin2svJhuhtQCQKPRaHLM+roD9osRNQ7jcTFBQDMTPUkGP1X+ULRTt2r6RN8t+zETzlV4i3YpjC9MWRjtyvWzagGg0Wg0ABJ22y8J2H+YFbsLwPMMflLE6dnypujHuiUzsMzzyy9j5uuUeReArYJxRr5sq9TbADUazYin88Iph5pSvAlADIPifkKgJRLy2TGjep7c7/4Pt+oWtMD415d7AX4eQLGiW0gIOrvikY6n8+WZtQdAo9GMeExpXAFw/hp/RicE/42Zn9w4dnLzcQtb47rVrBaA/JRC4w8GvlOZR8ZfCwCNRqMBQOBz8jAs/h0CnoTEk2WPRl/+X+T+Ot1gFrJu3pR9E1L8HcBEhQru95UNnXl3doIWABqNZkSz9sLKySzNyjwpTiuYnmTQU5WN7at066jl3bkHFSdox5MADlR4m+fK13V+Mx+fXwsAjUYzsmf/HJ+W46X/dhDdbTPMpikPrWvXLZIdGKD2vbvvA5Nb4W1WxeNF55MfCS0ANBqNJt8MgUkTKHf2v4eZr6k4JPqXXO8JH2l01JffQMwXKhQYH0hpO/3AptWb81b86m6g0WhGMm3zS2cR05Icy5C1gPgTJO6veLRDL/KrNv7zymYw4V9Qd7KjCUEnVTzSEcznetAeAI0mT/Ad7ztA2uUhUtBeffr8E5sNK/1+/6ZCf/a6ujpj/fr1Q8q5Pm7cuK7Fixf3DHkQJI6anOu5EFUBfCsEbmqvL/s7AQvLDon+U3sF1CCJjyaQumOdCS/ku/HXAmCE43bWPgnwWXtORvBmqCUwXck9Hd5VIEweaCoE4CMAa5n4pUSi6P7ly1/coKoOXA7vFUS4N9lnwoaKQCDQoXLUd7lqfX1uyDkJyLLe0Yk/q4pEDHA7vf8G8KitSPwhUzHgdnoDADy7loKXhMLBk1O+hsv7Ohgzdmu1J0ItgS8OtVzvR9/3gcSQZuHbNm07G8BTQ733+jGTV++/bcM2AGPzZEz+AgNf6HinrL1jHv5Egu8vW9QZ1SOWdbCwvUDS7IGibX/M6rYTWonQXWFk4nF4TgD4C/2o10MdDsdoy42/2z0RhM+hd7tNf//tDeBgACcT00/sRnytx+X5NhQsVzkcjtFE6PcwDhmXRykTX253jdvpbSbmpQAuA1A2wNePBnC7GWcrIomP2GOwkmJFqj+urq62g3FYkj6zIpNCSeDIof7WJHtG9z5uYWucgUAevqYVTLhFMq1try9/um3elDO4DgY0GVP1SNt6JixU5wBA7Zp5Uw7TAkCTnwqY6PYBjKphY9vhlr8UJs0Yws9GMdOvPK7aWyzv/ML2rYEMLwljhtX3nDNjTonb5V0EKZbtMRMf1EhyWyb39nq95Uiy15nSMN4lRSWHASjasz/hjYz6BtHQBABjeySydI0Fb8Rjefy6GgCfQSSe7rCXdXTUl92+9qLKqXoUy4yiWOJWBlRlURQ2Mn6kBYAm73C5aucCOGnA4VAIy2e/Ugx9lsfMN7hcPstO5/L5fBOI6bsD3lOypXXgcMws7Rrb7QejfmhGUmQkAEwzef0zUcoCwBRIKoqMRGYeABqqB4CwqteBkBn2sfwXBj4YBq/vZAauFab537b6sr+3zys/i316KXdIFdn0/kYivlvZJAt8blt9RbUWAJr8anPmHw9ubNjy2S+Bjshokijlt60qS7yHf4De5YaBCmxZHXi93nKDEi8DOG7oHguZkQAgTmpkze7urW9meI0dkyomrc6kTzLjc0McZVdY0T5TFq7rIqY7htN7TMCpIH6yY0pZW/v80tvWXFBVpYe3NEWx3f4LAKoOUCKC/HE+P79WjiNu9u+dR4xjBp9xw/r172TGg/EmiO7aaaY/nghfQpK1ahDm9E4WwZnVgWsKMX8tha8eXF1dPaa1tTWjYzvnzJhTsj3R/TcCpvTnHGHAT4wnWNCbIiE/gsBECRxDgs4FwwXA3L59e0aBYAQcuWfF0X/Tej7GjCQLR6uamprMoXtGfNNAsiTJR7dBiuaBR7DEaqu659bE+N+Os2/+MjBEMZI7poDpekMkvt9eX76UIRduHHvAU/q8gMGZ+uDaTW31ZT8j4HZFtzhl7bzSmVWNnUu1ANDklOrqajsx35JiPJ3VAoCSGnWBl0Lh5l2CcWpqahbabcVvg3HAbt+e4Ha7J4RCoU8yEyK2WwAek8I3jeLisdMBvJLJ7brGdS8cQHQtYxLfCIf9ryb5rBnAnS6X91QwbmttzWxAZ8KRSaTTijRbMYkHgDOahRvgpO5/CfFYZJl/Zbbej+lNq2Id9WWXMhBEkjiH4eAVAHg2gWbvv33D++3zyh+AxJ8qHut4T49+/WMfK3+T2Ca+if4FeoauGvoxAEeedhjNSGF0UckCgJLkvKbWJF/f2+GYWWrVvX0n+ioB7LHPm+WeBmj58uVbwBRK7pngjHYnuFyuQwl8yZ4TW7wGYI9ZbKZLIW63z93fmj8x/vzJ5o9q+zH+nxEOB/5BQs7KqP59PhsYh+75fKkLAIfDsTeSBE1ShjsAKHlsSGzz5o3vZPsdKW+IvszANcP+ZWccAOLvw+B32uvLX2irL61bVTe9CJo93ScL13UBdJvCW5zYXl/+BS0ANDnD5/ONhUi65W0TSXlV0s4hEpZ5ARK25LM8o58ZKIGTDVbc3d29MSNjI42fIJnni+h6AG1JjHRmcQBS3tHPTPrJYEvg0lWrVsVSuUymXo94PH4okux5TibA+sMGW/IgQtPISABw8riCN1OtG6upbIjeTcAdBfLqf+oVeHycffP7HfVlf2ibVzEdml34YOz+9wFQ6CnhH+fjFk4tAEYIZpy/k8SlDgC/+Hjrx68Aex5WQdK6ILh+gse4R/asTCZWOPkWuTWZuMGdztrjQTg7yUevhsPN/wTj7SSfDVkEeRyeWQCcST5qt9nFxcgwliGtF51Fcjc7Galv3+snKDLORoaBeHt6WYjxei7fl7KG6PdB9IcCGwYmMrCASK5sry97ta2+bEFHXdloaHDcwtY4ATcpvMX0dntpfb4994iKAZg7d27xli1b9hFCTKAETZAsPlsHZoN7gMQHiURi/fLly7cU2Ox/30RMXr3neI6PJJl3r1q1KuZxetcycNBuo7BlAoBZHrFH7AFj7e517XK5xiV65H2gpGdz/zMztcs/RZIACAlc3zsRpbcIPDeJABhi4CFd1I934ya/378tm32A+9mBQTCvczu9KW2jY8KJSWphYyaZGn0+36hETB64Z3lxvNvlfbx/LUJvBcPNN6qqLwKYF3Vc2V5ftoaAnxTgZKmagD+wHXd01Jc9DsJvyxdFV2AEU3ZItLHj7bJrQDhKUZ/60btzD3r84MX/7cmXZy5IAeByucYJKY6VwDECdDQTDgZQtXXz9skEg9gEmHqnuDvNOAAYsBsG3E5vN0BvM/CKAF42QS2RSPaCkayf/cvrkWz9nfGLcCS8tc9AvAXwQbuN+Ba+CEkSvRALt9N7+04vSBUDtaCkngpmEg9kMBs/hYFZSV7Klkgk8HzfLZJ5ACa43e7yUCiU9jGtTEiWXnfzx5s/bsh6J0gevQ8CX57GNZKRUQKgRCIxHRBGkoJ9DgNsDWTw/aqrjABGQ/SOtvrS1QR6AEBJAQ6XExhYAMZX2uvLAjDpyyM1aJBuhmy/kG6E5L8pukPVqIndXwHwWy0ALK5Zt9t9ArFxGjPPAuMEJtgy2C82CuCjCDiKgcsFGG6n910GN5Hgx0Oh0OvDpWKczpmVzIkrk87+hXnPZ/8mfosZp+/2pUN8Pt8ov9/fnUkZpk+fXgTsGYAGUCWAa3exL9zvYPx4aJBguYH6BxP9JKkhkeLGnTwEb3EyK2liBoC0BICvxleWgJySxHI9l4u1bSYcqeK4m4wDACUdyUO6L2dNkFc2dDZFzy99XQr6Awi+QjR+DGwThEXlI3zHQMUjHU+31Ze1kKKofSZc//5Fkx444OEN2/PheYe1W8tb4z3Y7fL+1OX0roYUy5j5h+hdc1UhbA4m0A8gxb/dTm+gL5te3h+nbHDiFiQ98IJ+Fg6Hd0qDmXT2azO7zYz3RE+cOPFwAPYMzMTbLOSVQ/2121F7AYBjk3wUCS3zf3YATUwWvZX89ulnRYzb+OB+lEzWI9tdLtc4AiqVDGgyMwHAQ8wAmGngYbqUPdb5TnljdCaYLhsmGQPTYbHdJo8oXxT9IzQQAj9QqLQOiJm2q/LmWYfjbN/l8p7qdnr/KQ28DcZ1BFRluQweYv6H2+n9l8tVe3K+VpTT6TuCCRcm+ehDSYnf76pMjaTGz4qUwMwikwyAL9tMmj3UKPjq6mo7Ef+on87/w53/3beW/XGSl3YIsRA8sZ/uuzHb/cCQxpGqxKpMI41wP/UxJAGQeeDhEEoKcEVjxwPFRnwaA98CsH6Y27pPGLiioiF66pSH1g3k4RIej2e/kSIAyh+J+gE8r7Anfa+jrmzvfHjWYbUE4D7RNxtC/hiME/KkSEcT8/NuZ+2zNpOu9C/359WRnQbkjxlJt558SGz8wu307jSSm+OS2QgrUgL3swNgMD5gxs/HTyj5TSZnvY8pHns57x7b0MsOCZzvdnrPT2HkT7sOBLOZdDkBPD7b/UASHdHP2sqLIE7NA884uG/JZpdLj91W/GaGxUsmDv8DwkAu/h0qj4gejD737V3vXzTpvnjCfhkTrgJw4PAyc/xozEhcddDDGwb0ZrhcrunExn1S8tMAfjpSRABD/IAgT1YknPeCHd8DcJ0WACngcPgOM4T5G7Ccnafd5fSEwW6P03N5MBL8a16IJbe7hiXO6Ofjw/r+23V+k8x4cOZbAZOnoMXHIP7XTv9OgLERoHZifmnshLGhTAw/0JuCt4u6b+wnrmA0gAUpXirtlMDEtJGTVikdlfXOQDwjSR2sC0UCKb9PbmdtI8CVu7Xr6uffeH7Ia5l9u1Mm7+kxwl3hSCDvt+D1CYHf8M24p/3tKacRGd8EeHaeF3s9AV8vb+h8YqAvVVdX20cXl3wHjL4lRLoTI4jKhvbWjnllf2XCuWoEBq6Kzi/9bdmizpxOGvNaAMydO7d426aum5jk1WDK9yxWExjU5HLU/sJeTD/w+/2JnJbGpNtBmatXYUFKYEZSEfFUKBz8ssoq6Brb/e1+ch+k7UxJNyWwNGQUMtkKG5/scrnG7Rp/oViectIAwDRd6HxEkutmtANAxmTykwWBYbUdjW6GBNY9A+CZtRdMOcYQ4tsMXICM4l6s7wYEPII4vlXeFB3w8Buvw3uMSfgT8L/01cy0GiMMknw9G3SWIjs5SrK4HsCVuXzGvI0BcLlc07du7lrOxN/H8MnLTUR8TSIm/1lTUzM+V4VwO9yng8hnkVLdJ5OUwD6fbwKA0j2NBysd5N1u90QA37HqegbJtIRQ37bBZIPmXsTG1Vl+yafv2VFTN7LV1dV2AIckce1k1Iayn+RQoli8iWFK1aPrXitviF4shVHJwC1Qd9JcOqxm4pPLG6IXD2T8HQ7HaLfTe7skvELY9eyKoiJaM9IEQNljne+A8ZBCTfbljgvLDtICYDc8Ts8lxMarAB81TPvOLLtR/EJf7vTstymJWy29oDCHvAwQj3PSADShepYn6QYAEy273NACAZ/r54Pr3Q736SmI4Ckul3d+JuV2OGaWMrDPHiVLI3q/pKjksGQinJCxiEt2sFC73+/fNNyNR9UjbesrG6I3j4r3VDJwBQFv5aAYCQLuLjLiMyoXdb444Kzf6fUaZP83erfl7h43tNXv93+IEYjNLm8BoCpxj50lbsnp8+VTZft8PlsiJn/JwDcLoO+cYFDRUqfTOScSiWRt25DbWTsf4KOTfLQRxAPnL2AaD+wZYEmSjwKweEguEclJE9CYZCoTAF6vt1wm8NVkdhzEgx/LyeTd3eARKG0BQAZ+yyauSCK0bSDxhNvl/SUJ/lUwGNx5ZwB5Hd4jJPElYPoKUWZrrwbkkf0o/5TrXyJ5ECGLjAVAsiOf3+3z3vQ/aNls8WxnUhwq+zdt3AZgId+M+7IcJ7CCgMvLG6IvDzLmTkjE5B0S+Ar6DXgbee7/T5ny0Lr2jvqyexlQtXXvgrUXTPlF1aPrXhvRAsDhcIxOxGQTgNMKp/vwUQL2f8yZMac2k2CpVOlNuMM39/MSXx0KBx4ecDCo8ZUlDNmx508z2AkgkhxBS3g/ElYnimSCbwFoVJL2eCwUDg6aj9vt9L6RZHaadkrgYDD4ptvh/QsI5yVT/2BcxyZd43Z6XwewkYDxDBwkgf3+NxbL9kzqgoR5JO8ZjWjGEU95RtpPEOeOyZMnZ5I0RoD2XJoA02wwDeg2j8f4PvQarGHDLnECF0451pDiW4riBOIE/GpLfK8bpzcNnHDK7a49IxGTv0eSJbrdGHHu/11ENMvb4iQuI2CcgssLwxC3Ajg9F8+WF0sAPp9vrCFsTxeW8f9sRKveMbb7cZ/Pp1xsTRy/z5UApiX56B1bETUO9nv/cn8ngG1JBuWhL8UkW+dlde5/l8t1aD85+E2TjR+lVuSkyXomuN3u8nTLYyJ+JcBtA07Se5MUncK92cd22W9tMmUkAPo5ae/dlpaWHak3ISfZqkdvNjU1mUMtl9M5cyqAsUMypsMsSHB3qh5Z9y8VcQIMtDCJo8sbotcNZPxramZNcru8j6N3a18K8T1yxHoAAGBK47oPCXynMgvBOK1jXlntiBQAPp9vbCImXwDT7ELtQAycGo+Zv1JdjyB8P/mAyTeluCuBGXg3yQUO8fl8o4Y2VifN5/6Guso27kASzxYxHmlp8ac4602aFfHTlMBp0dLS8jExzhvqIM8s2jOrkGRnMKRnQJn2FBGcoRE2OH7kUH8rwCsLYVzYPU6AgbeHeKkuBq6riEc9lYvaBwygdDtq64qM+Cow6tJo/xHtAQCA0aN6fq4yAyQT3zbiBECf2/9pACcWegci0DfcDu/Fqq6fiMnvApiU5M6rgpHg42mU07KUwE7nzAoAE5IMKEpmcB6H5wQCzkxmutmQP0m9sSh5ul4aWlbEYEvwZZOFC8nE1SDEYluHLAD6vE6H7VH/MvW1+/7SCGc8CxdiyMtKCSRWFtLYsH/Txm2VDdGFFYdEP8cszwRoSRo/fy4B83OVDdE7qAn9emS8Xu9Ut9P7PIgfTxYUOsgLMaI9AACw3/0fbiXQzxVaCHdHfdmpI0kACEH2RgAnjZheRLjH4fAdZrnh603T+e1+lOWNAGSq12KWSY3fUFICC44lD0Az1WwBZKLbkSSQiUEPhEKhNHLwi7f7ceUM2Wi1tPjfGrdXyZFE/L2UvAGM7SD8IZ3kQ3uoHtM8BMCoJC/9itT7g+2IpHWaoYjjoWWHBIAN2QyqzerwcDNkZeO6ZyoaOk6WQlYT8DCAeD9f38TAFeUN0bnTGtYPtMQk3M7aBTKBNwAMKW25YWoPAACYRcZvAXQo8wIAt/PN2bXJOQsCdDs9PwXwhRHWh8YaxH+prq4+IZOBfc8JK41lpsv3NNpshsOBJ9O6lsF/hilW7nmtRNp7syUV/UewuUcA3NiJJausrliHwzEaTL8H8Ps9ZozSFkjnWt3dW98YXTT2vD31m8xorbYvs+HPq6ur7xxtH1dLhjyFJSpAmAzAAOMjEN6EoPCOHdtezLSPGN3Gxwkb7/EcbMjmlAcIG0dlnPYMYqTEskzKJoGfCSn+kH5fN7eMhIGi6pF1/wJw8bqLp9yQSIhvoDfoca++Sng8IW3fnNa4ZsB0yE6n7wjB8j6AazKxS9vj29u0+QemPri2u62+7DYCVGWpPLLjnfLzgI5HszcnzQEep+dCBj08crsSPxCKBC/Tr5RGo0mF9y+aVBKXdi8kOssbowPG0HyWxhfo5yTQtFgXigRKdQv0jdw+2DqmlL0J4GBFt3j3g7GTph+3sDVekALAW+M9WBpohZotFcMGAl8ajAQf1K+URqOxCpfLdyIx3wfwdIsGqnAoHHDn+pmA+Kpsps8eiPZ55fNA3KBMZDD/X2VjZ1bOwsjqeoPP5xslDTw+0o0/ADDo9263+yhoNBpNhlRXV49xO723E8uQZca/1xrlNADQW+M9mFj+DbAnfaZXF1Tb2+orJmazTOWHdjwGxuvqJof0w466stEFJwASMXk7gKP16woAGAVTNLhcrnG6KjQazZCNpNPrHV1UshLJ0/hmaP9zFwDocMwslQa/AGB/wZw0aHSfLR+VEuTGtvqySFt92c3ReaUOrrO2DvYw0DdDSubr1d0ApbDh6wUlALwOrxPAN/TruvO7RX/v7u7u1lWh0WiGgsfj2U8y/gHCVCUGIkc5AHw+3wSDEosBqgT6S0YFfDR+n04AJgEOAm6SRJEOe9mm9vryF9rqy65ac0FVlYryVT3a+XcAzaqenwnfz4ZnIysCYO7cucWScB/y+PTBLPMhE04PtzR/r7U1O8EeGo2mADHhBaFE3WQ0+zkAfD7fqHhM/g07pePmZOdGADhuYWscvEfmzrEAzybgTkMk1rTXl73XUV/2h7b60rr36qbtZd0MTtygsBomEszvqK7rrBjkbVu6rgZweA5ej/UAXgShgYBFYDxBvWe6b8rhKxu0meKYcDjwDz16aTSaDIfwA5Ve3RRZFQB1dXVGPCYfIcC7qxAZIG8EDZoZchoDCwj0uN0e+7C9vuzVtvqym9vqK6oz2Xdf2dgewhAPSUtRfn17TV3VASrrW3keAN/xvgMSLK/LYh96F6B7bZKe8C/zr+2vX7tcvmOJ5Vno3V+7fxbKJRl8u73ISDUtr0aj0Qw2DZ2qcC9Xj3+5f11WZ2zrNtxDwBeTfLSf0+ncP3kSKLEqjTO6bACqCagG5E0d75Rt7KgnvwQvMYj/UbaoM5qWiWZcx4RTFE2mS0RR4gdQeDqu8m2Abpf3t2B8LQt9ZwNA14QizYuQRua7uXPnFm/dvP3rAG6Cut0JH0jgokgk8LwesTQajVV4nN7nGJij6PLvhCKBQ7P1LC6H5xYiurFfbwQwKxAJ7HGcd/u88rNA/KRFxVhNwBLJ8llZXPTC1AfXDhqj1V5f+ihA5yuqlhhDHF7Z0K7EE6N0CcDn8+0LxqXKew7xEluROCIUaX44HeMP9GZnC0UCvxQ2TCegRUHpXiKDj9bGX6PRKGCawnE1a+5/t7N2wUDGHwAkKGkcABmWHg7Vu1xA4mkjlvi4L5jw2rb6imruZ8JMoB8CUOXVLSLmG1XVu1IBEO8xrwQwRqntBxZNnnLA5/1+/4eZXCcQCHR09WyvZdAjFhXNBHDL5NJJJweDwfV6nNJoNFZSV1dnMFCh7AacnQBAl8t7JsD3DP5NmVQAlB0UXQ2gS0HRRvcFE95OkK921Jetbasv+2NbfWldR13Z3p9+qbwh+i7AjyirIOIL2+ZVTFdxaZUxACSILmalXYeePaB0/y9lci75zvRF5H/J5axNEPiSDC61XgAXJnNXaTQajRV0dn5UJoAiZfY/CzkAvE6vVzIeS8UWUX8egJsh2+vxJoDjFBe3goDLAbqc7ZDt9WWvEbBEQi4hol8x42JFk2qDSN4G4Oxh4wFwu90nMHCQwsZYZyuii6wy/jvLzO6ebQsYCAzx9y/ETfsx2vhrNBqVCCGnKr0+sVIB4HT6jpDAU0hyYmVSQdK7FbCfuDXO9hHRAkA1A9cSxAvMCAKIKbzfF9ZeMOWYYSMAIMUZKmufiW/1+/2bVFy7tbU1Lgw+l4G1afwsAeCGUCTw+eXLX9yghyeNRqMUU05TeXlSuATgq/GVCch/AEgn2c04p3NmP0seYlWOW2OvVIXMUJvDIPGD4SMAgJMUXrs7kYg1qGzNYDC4kYQ8C0BPCl/vFMCsUCTwY6QZhKjRaDRDMwlQ6wEoFko8ACecMGufhCFfAFCedpk4dmRysZJ1D0DWYcI5HReWWepVVyIAHA7HaADHK6yLfy1fvlz5ueChUOh1ALcO3CpYbCsSRwcigQA0Go0mewJApQfgExUeVofDMbrIFn8awGFDNFnJ4wBE4QsAAIIlf8nKCyoJArTDfpgE7Or6PTqyVeM7erb/bHRxybnY8xCjBIGuD7Y0/xxpZKHQaHKJw+EYXSyL90nYE58FjwkhWEq5KRQKbdJ9eThNCVUKAOvd/3V1dcb6zg8aAHYOuVSUPCVw2aLOaHt92SYAEwpc9X2JgRvJovdUiQAwBT5HrLLfk5Gt6m5tbY27XL6vEMtl+N9JW+2CMS/Q0hwZaWNOdXW1fZxt3CRTmFPYEJOI5SRm2menr4wCMJpAHzPz+4D4QEB2imKxPtOtmprBqampGW8Yo6YbwBF9B6gcCmASgH36/huTMCQg/+f8kxIABNxOL9CbPrsDhDaWvIIgVpowXm5pWdqpazfvULcEYH0OAFrfuWEhgLMyHPuPGODTlQC5C7zNy9vOn3wYHlv/n7wVAAJUyUonEnxoNms8HPa/6nJ6fkegb4DxTMy0X/ryyy9+VOiji8/nm2D2mDUQmMGMIwE6EsDnEpBFAPUmN+4nKJfxadoMCQlAxiTcTu86MFpB+BcT/kUkg6FQ6BM9jmfURvvG43IWSZwMwkkApvXV/lCZDGAyGCcQUR3AMJCA2+ldDXAzWDyzI7btudbW1i5d+7ljzow5JV3oVpfCnK3dAeB2em4HcJkFBTvM5/PZkqdTFysBLnQBAGHYfADyVwAw896K6+BzLpdrSjgczlqe6oQZu6HIGPWfYEvzvShQN+ncuXOLt2zp8hJ4JhgzEzFZDSLDwqedAsIUAGcQA2CRcLs8fkh6StjxdCAQ6IBm8MHU7T6E2LiQmU9LxOTRBAj1Sb0xDaBpIL50dHFJl9vhfZbA9wdbgi9ghAe++nw+m2ma+zHz6F2mvHEay3ZOaSmU4hRnO28DkAiFQu2DfX/b2NhUoTCVO1t4DLDbWftVgL9n0eWKZbc8OKkBJKwcIQtYM6y6kKpEQKrPMTaIja8CuCFbNd4XdPj7QutJdXV1xvvR930Mmrd18/ZzSH3b7dr/mGaDMFsm8Bu3yxth4G67XTyhD0zaw+hPZKbzBdPFLOHg3I50Y0A4j0HnuZzetcS4c8z2Ufc9/8bz2wu9HWZXz96ruyg+B8QuBo4h4LBETO7fa4t3tcdsAJCp2eidvrsawKAn/BHJaSq7AFu0BdDj9FzA4N9YWTZJdEQyAUDEq3hECAC27IRARQKAKQvnDH3HW+P9c2B54F1tHtLH5XJNITa+un7dhi+D6IA8KBKB4SLAlYjJDo+z9rcszD+O9CUCt9t9CKS4FhLzCSjOt/GNgCoQ7twxtvuHHmftz4wiutvv93cXUhvMnTu3eOumrnNAfGk3Yj70BTgrGeFSXXuXPA2kboy1mZl7AFyu2pOY+UFYvNuMe1MCN+0xKzTlygSJETAq8L5WXUlJbTGEmYVaGC0NapozY06JNudpKHKH5wS309NAbKwFcD0YB+RhMcsZfAekaHM7vdfOnTu3eKS1k9PpO9rt8D4GKf6D3rXTvK4DBvZh8B2JmHzb5fKeXwhtUFNTM97t9F6/dfP2KIgbAJwMhbub+uZOKQkAIlKZA0CW7F3SntE4U+OZQcxPqOi3/aUEntK47kMQ3i/0sYGINue1B4DAWXIF8lFdY3vuA1APvX1pMINyhCB5IzPqhlGxxwG4fevm7V9zO7w3hFoCD42IGb8pfgHI00FZWNm3ngpiPOp2ei8SNlw5HOM6fD6fLRHjrwJ8M7K7JAakmn+fMVVh7+hcvHhxz1B/7HTOPJCReB6qtuSJAVLMM6200kWel2KbeWNeewDA2VRhfIHL5blOm/jkeGu8B3uc3kcF5BsYXsZ/F48ACH92O71LvV7v1EJspzkz5pS4nd6bIcUbIJwBDEvjvzOnyQRWuR2184ZToT0neo5NxPhVgO/KuvEHwAKpLQEQqUwCNOT1/5qaWZME4s+hd+upIv8E2gb4dMUIGNaj+S0AgHXZrA1ius3j9Jymzf0us5hRbqf3ZmlgBQPnF4BBAYCTZAL/djtrLyqgpiKP03NJ17ju/wK4CXnu6k+TcSBucLu89w6DZRzhcdZ+jwW1AHxUDouRivElMFepc0LQkNb/XS7XOLsR/wdAByqsoE2CcW3/s2N6Ar3nshQskvFSXgsAFuKdbL81DGp0uVzToYHLVXtSIiZfK0CDAgDjAX7I7fI+7vP5JgznB/F4PPt5nN6nGPRAnsZiWGVRrti2eftLTqdz/3ws3pwZc0rcLu9fGHwHFB6vm9LgLnsGFQC+432TQFAX+8QybQ9AdXW1ndhoAnCswurpYqIzA8sC/e6Br2xsDwmTpxPjJgCtKLyl4e3xTaPDeS0ASrYWrUD29waPIzaeOOGEWfuMVMPf60b2LCTmpRhyru1hY1TqEjH5ssPhO2g4Ft/tcJ/OJq1k4MyR0DcZcAjYWvKtvXzH+w7oGtsdAlt/1voQ2NzS0vLxoCLBpvYUQIi0twDS6FEl9wE4RWGpYmDxxXC4OTjYF8se63ynvDH6o4qG6HFkQzmIrwSwGEAB7E6hvx68+L89ljW1iiI+/8bz28F4Kwe1c0ixLf5MdXX1mJFm/J1O3xFdY7tbAPrKCHrsg20klzmdtY7hUuC5c+cWu52e34HE0wD2H2HddJpBMuDxeD6XD4XxeDyTEzb5IvY85yNXIiklw8vESgWAIdPbAuhy1P4SjIsVFikOQeeGWvz/TPeH5Q9FOysWdd5b0RA9leLYm1meScBC9Ka8Hm5IZvqZpVpPmU4BluZqpjG6uORxn89nwwjB5fJ8XUC+CuDIkSZ8GNhHgJ/3ODyn5HtZnU7n/lu3bH8RoCtRGDEZQ2Eym+T3Orw57as1NbMmsYkgCJ/Ll4qhFHcASFZ8DHBCpOwBcDu81xHxt1UaPTB9KRRqfibTC5U3RXdUNq57prwhekV5PFrOLDzM+BkhJ5PV9Mc6QkNlY/uqYSEApMALOayr0xIxeU+hj6TV1dX2Xpc//QaFt9afDmOZ6BmPw3NWvhbQ6/AeSbAtB8MFzX6SsMTtdh+So/dmjN2IP6U4WG0IYpbeS0kokFIBsMP/in9DahMP73wQfqJW39OVoZbmRsvFVhPMysb2UGVj9NryhujhDHEgA98CaAmAeB6+M1HD4G9ZLvZUlXb8+JLnAGzOYYUtcDu9NxXqCOpwOPYeVVzyzxHm8h8IOxM1ut2+vDsMxO2uPUMSIgRU6Wb6jP1Jir/nIjBw9KiSBwGcmG8VQoS1KX5T9THAgwbOuVzeU4nxIFSeR8D4XijSvDAbdV/Z0L66siF6V0VDx8nCxpMZfDEx/sLA1jzoGnFmMa/soU7LD6BTJgAWL17cQ4ynclxxN3uctQVnIJ3OmZU2si8nYKa2I7swiqR8yuHw5U0ApNtRWwfJfwUwVjfPHtO7gwTZnpg+fXrWIu/dztpv5m0+jNTz76uMARh0GcLprD2eGI9B3VkyAHBDuCXwi1w0Q9lDnR9VNnQ+XN4YratYF92bWXgIuBtALpJa9YDpvMrG9pCKiytNnGwS/SH3gwzf63F6Liicmb/vIIFEgIGDoElmVPYRJBfX1MyalOuyuFze8/pSyNp1y/TbYK69J+xzR1aMv9t9CHq3+uUnRmJQAdAnlqYobJDVg48//KxKQUuEO0ORwI/zoUnIj0RlY3uovCF6VUVDtEJKeSwBNyM7Www/EuC5FY0dyibSSgVAJNLcAsbyHLehYNBDbof79AIw/ocZJP0AKrTlGOClBaqKjPhDyGGgncfpuZAYDYpnSYWhARjfcju89aq7BUvxewCj8rQa5Lhx49oG+9LEiROrABjq2oLX9C9oXVMEyRegdvfK74LhwLfzta9WPbrutfKG6C0VDdHjYkb8AAZ/iYBnAfRY2lkJfycbjipr6HxJ5fMoPzqJwLfnQbvZQeKvwyFSfCDl3Wf8S7XJSMkTMMftrL0yF/d2O2rrGPSgyoG6AFXb7xyOmcr6tsvlrc/zJbPU8u+bNqVbAAUlXwKoqakZT2z8XWUcC4MeCUUC3xguXfaghzd8UNnQ+VB5Q/SMUfGefYlxLoA/YeipehngF4hwavmi6OnlD0U7lc+OVd8g2BJ8CsCyPGivIiZ6Ih+DxAYfvFxTDMjnoTK/dmHKgJ9nOx7A6aw9HsTa+KfPXgYllCwZ9map41vy/PlTPAWQlW4BpCRxCD6fb5TNKH4GSvMl0FP2IroU2U8gZwn7N23cVt4Y/WtFQ/TyioZoOQw6si8B0Z8Y+DeA/g7I20yEvzNwnTTN6RUNnXPKF0UXZ6vc2XFPCnENpAwg93ufx0DKp91u90mhUOj14dCxfD7fhERcLobarT+FyhiD5AMAnMhCSlCv1ztVJvhZAGN01Q+J0zxOzwXBSPBRKy86unjshQAfmM8Pnmr+fcmYSgpHUVOYa3cfvRMxfpgAr8LHf2HcXmMuWLx4ccHk8K94uGMlgJU7/23dgiljurfxfsQ0mgz7ZqPH3FTeFN2Ry3JmzSC7nZ77Abo0T9pno5CoHSindJ4Yf1s8Jp/LQ9dlFwHrGNgE4k29I5jYD+D90Ls+mFfr3kw4PxwOPK7yHg6HY2+DiiIAH5onj72JgP9I0HtguZpIbAawDczdIBpFwAQJuRdBTGPwoQQcmifCZf2Onu0Htba2dlk39tS+CnB1XgsA5hvDLcFbB/uey+n9CwFfVDUuhiKB/Xe9n+duAql0y0fGbBs15/k3nt8OTdbJ2kBtcuK7BtnnID/WsPeTAs85nTM9kcjStnxtHDMuf5oHxj8OYBkRLZHgV6W0vd7SsrTftam5c+cWb96843AD5tEAzWbgZOQ45S0xbquurn6ytbVVVYIPMmB/JMfGfwcI/2Tw88xGKBLxv4k03Kk+n89mdps1kjCHiM5G7rJKTh5TPPbrACxJeepy+Y4Dy7w2/kD/a+9JUBcDwLsuQ7id3psBqDT+/7YVidO08R8BHgAA8Dg8tUy0FFmIPUixx7/HJL3hcHhdvjWMy+U9jxiPIjfLJnGAngNzIwvzmXA4PORkGHV1dcb70fdnM+FLAJ2LnG2Jo6+FIs2/U9KvXZ5vM9OvctGBQfwig/5YsnXU360cSD0nelws8DWAzs/2+0rARzGzZ9ry5cu3ZD77994O9H98bN4IAIYr0BKIpPA8nwCYoKg7NYYiwfo+r8kCgFVu414RS9hPevnlFz+CZmQIAABwOTy3ENGNeVQHK2MJuy+fOmLfdr9XkP3kMR8w8732hPF7/yv+962+uO9EX5VJ8lomXI7sLxOs/2TzR1WrVq2KWWr8T/Qcy4IiyG4q5gSAhyTEryMR/0qVN3K73dWQdCdA2Q6e/WEoErjNAgHwH2TvZMx2EDoATntdlwTqg8HgxoHHBcfeBtmVjVMM/kk4Erze7a49A5KfUPWOEvBfGOwNBoPD8UAeLQAyvafb5X0sn7JxEfCKJHNWJjNdy4ykz2dLxGQYwAnZnHEx6Ce2Ivqd3+9XfmSm1+E9UhLuAeDJbjtzXTAS/IuFbTU2EeNXs+r6JzxpSvGDlhb/W1l9Z5213+5LopMt4dZpKxJVfr9/yIFhHo9nPzbpA8Xl3AbgLmHDnwKBwBqVN3K5fMcRy1eUNTLxVySMlcTyRaiLB+mwSeH1L/Ov1eY39+TCFc87urdfkgcJgnZSvjie2Pibz+fLeZKQRExel0XjbxLhzuKeogNDkeZfZcP4A0CgJbAiFAn4iOj6vtlsltqZFlhaeXF5axaNfwcxfz4UDpyTZeMPAByKNP9KALMAfJile5bG4/LUTC4gpThOcYdaDiGnhyKBG1QbfwAgyYp3AokpxHKxQuO/3mQxUxv/kS0A0Nra2kU2PhvgfArAOynRIx+vrq7OWdpWr8N7DIBsLY+sYBInBsOBby9pXZKLQ5tkMNz8EwGcguwdGjXL7XZbEkTldruPYsbXs2R/H4ibPUcEW4LP5fIFCUQCAcGYA+CTrLgdGAsy+z3PUOiJCZuInxQKhdqz54dhpUmAuDdXwgRFl98kIU5tafH/V5vdES4AACAYDK4XkuZmazBJ8aU+Y0xxyQM5qheShHuRjSA5xp9MjteEw/5Xc13lgUhgKZnsBbAhK/1dikst6Sks7oF6d3gPEX8lFAleZkVAnCXt1RJ4TYJOAZCN/cuf9/l8+w69m5Oq8zI2keC6lpaW7O7hHr65QLZI0JxIxP9vbXK1APjfYLIs8B8BnAWL8yhnZhsx3+30/Dbb93W5vBdDves/QaAFoZbA5VkfvAYSg8uDb0iIz2fDE8DAaRnP/p21l4DhUlzUDyFkbTAcvC/fBo1IpPkVIv5mFm5lxONyyOm7iaUSAcDMv8pJABsrPQVQFTuI+cxIpPkVaLQASDIDDPRuEVOfqS2NoeNKl9OTtdOoXC7XOGL8VPHgsZ0JXwhGmv+Yjx0xEvH/WwDnADDVTqJwdCYnBc6ZMacE6s+3WM9k+kKh0PJ8HTh6hQk3qp/0YuhxAKTGA2DY6cGcjEoYdh6AGBPODbYEm7Wp1QKgX8LhwGMAvp9PFUOgH3ictd/LjrIX1wGYrFKFwxCnh8OBf+RzZwxEAksB3KS6aYuM2MlD/XHX2O7/g9rERutNFt5wOLwq3wcPCfNbUO216Y05SHuccjgco6Em6djqQCCQ9XPh6+rqDB5ep4CaYLow38ccLQDyhFAkcAcR7synymHw7b0JMdThcDj2VpxqMw4W54RCfv9w6JChSOCnUHx4FANzhvK7vl0i31FYtK2CcdpwCZSKRCIfELFqT9m+Lpfr4PQn/8UHQsU2Z0ZO4mY6Oz8qA1A0TOwKg7Eg1NLcpE2sFgApEwwHvtN3jGr+OALAv/M4PaepawDbVQDGKfRkfC3U4v/nMOqTEkL+HxRuDySQY0hKqsf8PwBTlD03i/MCLYHXhtMA8vGmj+/C0I8/TRHj6LTfK+aDFXWed3IyEJE5XNb/mYm/GmoJ3K/NqxYAaXee7p5tC8BYnEdlMhjU4HK5plt94ZqamvFE6mb/xPhtvq75D+gFCIVeB/hhhR6AqX0u4pSZO3duMRFdo/CxfzLMhBoAYNWqVTEw7lE6SEk6Ku2+L9QEABL4vZwIAOU5AKyy/vheOBy8V5tWLQCGRGtra3xHbPu5ACJ5VKzxxMbTmWxJSoZNFC8AMFHRTOWNsRNKvjtcO6aE/ccKvQCGHfa00sNu2bL9C8pm/4SwrUjcMlzbykR8IYAuVddnSn8/PzMpEgC0OieVTMNhBwD/KtwS+IU2q1oAZCoCumxF4gsA8um43mmJuNno8/ms2vtNRHS5orLGKMEXLV68uGe4dsxIZOl7IDyj0Kik5dEhhrK2YphfziTlba5paWn5GKCnFRq/8iH8Ss0SgA1rclPLnPcCgCHGa5OqBYAl+P3+D022nZxX2QKZZidi8gYrLuVy1bpVpZFlpruCy4NvDPveSfSAurYUn0v1q16vtxzqjmX+WTgcfnvYtxXjcYXXHsq2TRUegJ5AINCZo5ch75cACPxlj8NzCjRaAFgzs1jaKUw6GdnJEpcq17tcvhMteFkuV/QWvp+Q3bcVQue02WgxgE2KrErK7nwzzpcDMBQUIrqjZ/tPC6Ktimkx1C0D7JvOWNW3W0PFFsA2ADJHVTwcYgCIiR7weDz7adOqBYAlBJYH3iXmM9F76lZejHXE8v7p06cPeUuOw+EYDYkvKimdxO35kjY2U/x+fwKMpYqEUsqDFBFdqGhm+4vW1tauAmmrbla3fdPw+Xx7p/rleDx+oJKxjTgn6/+9yacwaZh0hcmcoD8jNyfNagpNAABAsCX4sgC+gPxJGXz4xPH7DHk/uAFjFgglCsr1wY7Y9j8WVA8lUpVFLCUB4D3RezhgfQAWAR/ZisWfCqqpgICyi29P/dwFIYWa9X/OTQBgd0n3tGHWEea6HN4F0GgBYJknIBJYyoSLkTsX3O7c4Dved8DQXhBxhqIy/b5QZpSfVZWUrWom35RSwJIUNFfN/XGv3+/fVkhtxUQv50c5hBKDScRrc/E8phh+hwAR4VcOh+8waLQAsIpwOPA4M76aJyq3JGGX1w1togQViYWkhO2BQuug0pBvQMU5EcwpLuHwqSqey2TxSKG1ld2kvNi1Q6xozzwjN1sAJQ/HQ4DGGCQXZbJUqtECYE8R0BL4AzPfmCfFucLlcqW1N9zp9E2HigAl4qWRyNK2Quug4XB4KwDrc68Tigf7is/nGwvArcCQLG9p8b9VaG3lX+ZvA2O7imvvEAan0bZqPAA5WgIgouF6DPCxE/fa50fazGoBYLEICN7KTL/Og6KMIjYWpPcyyxo1swR6qmB7KUPFwTiDRvWbPWYNMLhQSHtAFwr3zOe6pQjrVFx49Ghzc+qFUOMyF8UiRzkAaNow7hPXeJ3emdBoAWCtCGi+Ok/ODVhQXV1tT30WgRNUFMLG4u8F20sJluc0YGBHCm/HsUq0GmhpwbYV2Potu4ztfr+/O+XeAlQqeLCP/X7/phxV6tRh3CGEBB464YRZ+2hzqwWApcNCnpwbMHlM0Zg0FC5Z7gEg4L/+Zf61BSwAJlh+SR58z7pkMUPB02y123NzolyWXAAfKWj/T1L9qu943yQAYxQ82uqc9X7mKoUtFgKwVfEzlBbZEvp8AC0ArOXTcwMIaMmxhTorlW/NnTu3GGDLDxViwssF3UsZZQqG1a7Bv4JjFDzNiuGc9jcFYaVgq27qoiJmVxQASLlJAew73jdJ0Zbh3sci8RIY38rCS3yu21l7qTa5WgBYLQK6TCTOQo5O6eozwClt69uyZctBAGyW31/yKwXeTy0PmiTgg4E+7z0t0PpUzQx6p5Abioli1l9UpuwBEAW2A0CZoPn0sRhr+o7uzcISIt/lcPgOgkYLACuJRCIfSNhPwSCDukoD5TvRVzX44CTU7IsVhW1UAOs9AMxYP9DnhmGUqxBrIFnobaVglkqpxxWQmvVy5tx4AIjUbgEklqt7hZu5AEh9qWWIjDNINqYTM6XRAiBFEbD0PQk6XdU2pMGIG4NH9zPocBX3NsxcnVCmnpqaWZPQmwveahfA+oEHfENJ6lXBKGgBQMyWr78zEE3jy2pmzIIKMgcA2XufKxwOryPi72XhiY4bVTTmBmi0ALBeBDS/AtBFUJE4ZlB7gqNT+I4SD4AYJToKtYPabPEaNe018JIRSRyg4r4maCsKGWG9ACDizjQaVonBlJJy5AFQugMgNmnSpM+2bQbDwT8BeE79M9ENHoenVptfLQAsJ9TS/CSAXCSfqEhhJqPCAxArtJSyu3RQSScquTDjzYEHKalEABjMZmF7AMjy7V4sRTT1ZlViMM0tWza256RCWakAWNvU1GTuUtWwXQH1uwIEEz3sdrsnahOsBYD1IiASuIWAbCdbGWzvMQE4RIHnoaBnlEysIm8Cx2TsrYHHXdpfyUxSCFnI7SUBy4+CFUjNA+Dz+WykIF4E4OiqVatiOalQUpoEaA+vRiSytA2M72fhycpZGndrE6wFgBK70ZOwXwagM2s35IEj1d1udzmAsdZPEJScU58X9EbiQ8USwLspHJk8Wg8PQzBXKo6ttaeWClpKqSZwE7lZ/+8LlitVd4fkxxuHWgK/A/Ci8s4CvtDt8Nbr10YLAMt5+eUXPxJAPYCsuFxpEIMhpVB1Mtaogu2cwn6GGtFEkVR8D4oG3SmF2l5Op3M/BcJpl3XqAUkoc5fnZP2/xFZSBYUCn/rPbcDChq8AUL+0SPhdKjuoNFoApE0gEggA/FCWbjfgwGco2FP+qQCYXT17r4KcTjLNU9TpBxUAzEKNABieJ7ulhMGGioG8bbd16oGE3YGKHi0nHoCEoTgF8AC5DQKBwBqAbsrCY+6VMOQjdXV1BevJ1AIgh5hs/yEweNY3CyjK0eCEruJEeaG1m8/nmwDwXCXjnjBfzNVzKY7qzilSkOUCgNKZfasKmCvQHACQAz9XKNJ8Z1+qYLUwXOs7N1wHjRYAVtPSsrQThIezcKtBRIY6AWDAPKLghFvMvAgKTuID481QKDTojI4E96h4LgIdUajvmmDrBQADa1P+rqokQELk5hhgtTsAYIwyBnsuySQvB9Cdhce92eXynQiNFgCWv0iSG7OgYgc+rpQVqnmi6gKb/Y9i0LVqmolSS3nKtFHN/VHt8Xj2K8T3jCGrFFw2DeOr5h1jjuXoICCh0gPwSSqnG4bD4beZOBvbqm3E5iMul2ucNssFIAB8Pp8tX1I+BluCQQCbVd6DCZsGnvipU/PMKKjzts2Y+RUoin5mQlNqM3WpKq204ISYXZCjiQoPQHqH8FhvMBnbI5HIxhzVqEIPQOo7G+x24+dANk6wpANJGr/WZnmYCwC3u/aMREyuGlM8Zn6ePKckqE3BStS/q9LhmDkFareVHe1wzCwthA6pcvYP0Nu92SJTECEgdedKkJyLwqTS6gsKyWtT+V7fzFFFyujVyEFmUZUejT5SFlZ+vz9BJn8ZgPpcCIQvu1ze87VpHoYCwOPwzPI4vS9D8tMADmHQ1/JncpL6WuLQ+i36TS0rhKk68lsYZBbES5OImbcom/2zXJS6oDMV5pCgL/p8vn0LbCwhECz3AMCWmqEiRQlzKEdbAPt29ijMlCfTWtYILg++AeCnWelIjHvdbncFNMNDAHhO9BzrcXqfY6IlDBy/00fHeRyeWXkhAHjgKP3Mr0/v9lvJLA/MwhNegWEe0+F1eJ0AXa3o8nEJ+/2pfrm7u/sdhTOeMWacv1pIA0lNzaz9AVh9DsDWYDCYmvvdNNSIbMrRMcBFMaWThjSXVnq1WJG4jYHXsvD4E1iKh/XWwDwXAA6H7yC3s7aRBb3KwJzkHY2+nw8PSsB4ldeXoJf7v7nIxt7vQ1wu7+eHa0f0+XxjJfFDUJT4hIDHW1qWpjyrb21tjYPwljrByF/ry3RYENjtPVUKLrs2jWmjogDA3BwCxIq3ADKnn93Q7/cnGOIyAPEsjNfe99e9/x1tovNQAPh8vn3dTu/tBsmVAF/Q2179MsvprHXk8iH7lOQxCm+xpbR0vxUDvG1ZSf5CjFuHqReAEjFzocqtkpLEnUMYJN9Q+Mz720TRNYUykDALy9f/03K/qwqyZTM3OwAUnWr42Wx+iEeIRyL+f4Pwy+z0Kfqx01l7vDbTeSIAZlfP3svt9N6W6JFrAVyLFPdpE/jaXD7k+vXrjwYwQeEtWgbKVsbIWvKXYz1Oz8XDrRO6nZ5fAGqy/vUpo3+Gw/60o5gFyX+pHeD4eq/De+Rwaac5M+aU+Hy+pKmnVeQASMv9LtUYTBacGw+A2hwAsmTvkiGfbjhufMnNAK3KQjXYBfjP1dXVY6DJnQCYPn16kdtZu6C7OPY2gOtBKElTyZ+ZUyUnxQKlLyvxs4N8JWvZ3xj06+G0I8Dj8lwDkFpXH/HNQ/mZycYLih+/yCT8OV+2yw6Ez+cb2zW2+8mtW7eayfudghwAzKkLADUeAO7u7s6JAIDajJHRxYsXDznR1eLFi3sgzC8jO+esHD66uOTn2lTnQADU1dUZHqfnkol77fMuwH/A0E/6IsF8Sy4esKZm1iQAF6m0uYZBfxtg4BwF4IAsPvIEQ8QfHA4BNG5n7TeZ6Q7FiuiZUCi0fCg/jUT8KwFEVRaPgGNGF5fcmc/t5HA49jZjcikYB7W2tsb7UcGWCwDmlGffBCjYgUDY0Nra2pWTSmeFxwCnI6z6IRQKLWembB3n+1WXy3umNtdZFAAul/fM9Z0fvM6gBwBUWPAyzXW7a8/I9gPajPg9ULsH/5VAINDvcaU9PajCwDESKgaP2e+v23B7vna6uro6w+303gXwXYrrJgZDfjdDAfFcNgY4t9N7Uz62lcPhO8ggezMDxw/oklewBZBsqQWq+Wp8pVBxKiYjRxkAIaAgp8L/Ktaa4427Y9tuAPBuVhwijPs8Hs9kbbIVCwC32+d2u7whYvwN4OmW3k3K3zgcjr2z9XAep+cSAr6ouGv+aaBPDRUzk5REPr7b617PL+bMmFOyPrrhSQDfVD5oEO4OhUIZJYBigaezVDU3u1yer+dTW7lc3lMNki8D6Du/oN+ZIykwWNzV1bU2lS/GbazmDABQTgSA1+sthYpzMP6HJcsara2tXYJxCQCZhWrZDyY9mPXJ1EgRAN4TvYe7Xd7HIWUQDJeiIbnSELbHsuGe9jg8pzDoXsW32cqUaBzYgJhVuWpcZvqZy+H5Yb50NrfbXdM1tqcVhGx4gjpiiZ5bM72I3S7+AcL72Znl0G9cTs/duY4JmD59epHL4bmFGM9gp2Q0/e0dV5QD4P3U3e9qdtkIyk0SICTUxgyxhc8VaAlEANybjWphYI7bWfsNbbYt7ONO58xKj8P7oBRYCUad+lak2evXbbhN8cz/i0z0lGIVDRAeCofDWwce1HN7/CsR/cjlrH0gl3vO586dW+xx1P4EUoQBPjQrgwXh/5YvX74l0+v4/f4EgAez1l6gb4wuHrM0V+5Ot9vnnjh+n9eI6Ebs4SFMPiO22UwVfTxlI6XqHeMcHQPMyL8cAAMxZtuo7wHZWi7hn3lqPDO06bZIAAgkGpjwJWRz/zjjOrfTcwcsdudUV1fbPS7vrxnUBBVrgrsSt5niFylYoqpcNzKBLzHIvtzr8B6T7Xu7XLUnbd28/RUm/j4UJflJUukPh8OBf1j2kiRwP7KaD57cbNIbLpfn/7IVzOl0zjzQ7fTcDykDIHwuHcNB0noXfHrudzUGk1jmZAlAKp40mKbN0ud6/o3ntwvgK1l6R4rZEA2FlEQrpwKAGQ/lyCx9z+3yPmhVQ3pqPDNGF5cEmPEtZGWdiB/xL/OvTcH6VuVJWx8pCS+7nd47s3EcrdfhPcbt9P6TmJcCyN5ed8aaUT3FlroJA8sD7yLVY4StY19i+v36zg9aVabTdrvdR7mdngaBxNsAXTrQu1NU1E9WPAVZ69Jyv6s6B8CemxgAUrsFsGv58hctP+gqEAksBeP+LL3k023C/hNtvq2Y3MieRjC25+TujIsNsq1wOr1zhnoJX42vzOWsfYANeg3AiVkqecxkI9UOODWP2tsG4Co2abXLUfszt9tt9cApXC7vmR6n9zlJaAVwSpafLw5DzlvSusTyo59JypuQk1Ph+CgmWuJ2ev/jdniv8vl8YzO9oq/GV+Z2eK9yu7whSPFaXxKmwTwNW/x+/4f9fKbgGN40Zt+sJAlQbNKkSetyMzcilUsAyk43HBUruhqKt81+1uSMq1wu76nahGfY1QDA7fTc36f+c1mQfwC8sKun6x/97jX+dADz+WxmzDyFgfkAnQ317v7d+WUoEhh0e5nP5xubiMmtedz+EsBLBP4b2ejZQCCQ9ppnXV2dsaFzg8tkOh3EdYRcejzo6lCk+VfKZssu7xNgnJ3jNtsC0FIm+aJh0ouBZYG3BhvQHY6ZpTaKn8ggLwMeAo5G+l6yf4cigaRLSG6H5yUQ+SxtSWZfsCXYnMI7NioRk12w3uv3TigSODQXDex2etcBUBMDwngm1BJQtqfe4/ScxqBns1RVH8RN+4zly1/coE350GeEkBB/FOCcCgAGTgXo1NHFJRvcztogwK8T88rez4QdYHvv2iQdlYjJGoD2y1FRPxjVU5RSdHkshqo8T8wvAMxi0CxO4G630/sfAv7FwAomrCCSG6Qs2mSatM1m6zaEEBMoQROYuIKJjgL46PWdG04AsDcRI7f9hx4JKzT+ACAkbpKEM5G1WIakjAf4LGI6SwrA7fTGALSBuA2gT/5nQFHSl4J6KpAYxX32kYZewauzOWNN1f1umuY0gFQs+eUkALBP0KhLHKb4dMNgJPh3l7P2EQJfmIXq2t8u4g8AOA058c4ViACIRJpb3E7vqwCOy4MyTQL4XADn8mfvNe8qFXJpaAjfSdXFLDhRBRpWZ/MczsDhfQYEYAGBBIQBgA2wCTD1mRHOyJxYzauSYwtU3yTQEljhcXl/0xdnki8UATgYTAdD4VtCIrnhmD59ehEAq1NP9wQCgZRObuQET1Nj/zk3AYDdciqEwhcrCzsb4gnbt4ps8ZMx9Myx6QiauS6Hd0G4JfAHbc6HNgPsq0e+R1fHoC/P4nA4sCjlvkk0VVea8kZ5jww+s6WlZUc27tbVvf16gN8bcbXcz7G4EydOrFLgEWlDisllVL1jlKMcACwUnxxqqA9sfPnlFz9iwoJs1RkRfuVw+A7TY2EGAsAoMh4F8IGukn7ZBEP+X3p6IW92ABQqncJGJweDwfXZumFra2uXAC3ASHM59rd33LRZb7Ao9dm3ZKHoGOCcpQFWKgCkpKwIm3A48DQITVmqszEGyUV93ijNUASA3+/vBrBQV0k/YxL4ylAolN4RmtoDoJIPyeA5QwlczJRAJLAU4HtHUmWziK9J3sUVpOFNx01NimbMMjceAGWCpo+iIqzN1rPY7OKrWZxUHjtxr31+pIfFIQoAALDFxT052xKY39b/D8FI8NG0xzHWHgBFbGUSc4PB4Ju5KsCOnq6rAARHSH3L8ePHr82WAU4nUx0pmjEbo4xCzAGwwe/3b8vWs/j9/g+Z8J0sVt81Xqd3ph4ehygA/K/43wfh17padiEybnzJVUPTDVoAqLC9TPSFcNj/ai4L0draGrfFxXkAOkdAnXf2d348SyhIAsTpzL5VGMxP/H7/ptxMNtTFABCyv6wRDgcWgfBktuyZBB7K5oFzBSUAACBu9vwcwEZdNQCAjrhpP6e/wW8gfD7fBOx0kIrGEj4mySeHw80v5UNh/K/435egOgDdhVzpPNCWOFIwA0/R/e50OvcHMFbBI6/JYWWrnDTkxqsh+GsAPsnS7UoN2P+oh8ohCoDly5dvIeIf6KrBh0LilKEmmTC7zWm6Ci1lHZl8UnBZMJxPhYpEmlsk8AUAPYVa8TTwrgfL+3mq7neiIkXvWG5SAPel6B6fEyGnkGAwuB6M72axw57jcXou0UPm4NiSNlg4+Ce303segJNHaL1slaBTQ8ua/5OBtNIBgNa90a+bbJzWsnxpXrrbI5HA8x6H5wImaurvnRrWHoB+gvJ8Pt++iZi02mB9nKr7naScpmLHfK5OAUQCU5Wm1uDceTZCLYH73S5PHZg+n50+S791u92RUCj0Tjq/q66uHjN69OgBT5GdPHnylqamJnPn79pstq19J4fufj376NGjxwKAaZrd2dquPGQPwGddRcjLAWzByOMTCHlyJNL8SoYqVHsALBHzWDRmW7GrpWVpXq+1B1uCT4HpYgCxQmuD/g7mMXtUeLnS2KamKGCOKHuR8lkdMwyxOrcvM18BYGuW6rIEUiyqrq62p/OzUcVjbocUHw/034aODYcAwJiikl9++rdETCaNExszauw1n37HJux5t0uh3zR1oVCoHUyXYGTtd94gIWaGQqHlFswitAcg0/kQcF0wErjw+TeeHxY7U0ItzY0keSaADwupIUyI97JmsNLIAQBV7xjnZglAkuoxI5FTARAKhdoJdG0Wb3ncqKIxN6RlECUeA+gKgK4A4/t9nfL1z/4GukKMErvnHekG8OWkbwjzpcjj5UExyID2JBHdPEIMzkqbFCdGIv5/WzSSaQ/A0OvubWJ2hSKBO4ZbyYPLgmEh4QWwulBaoyiefFauxGAxp+MBqFJi//vJeaB+gqxUAMQnT56ccy9aMNJ8L4iXZK1OiW7wODy16by/oUjzwlCkeSEM2dCrM3ntp38LRZoX7r5ERcBfARzuOdHj2vnvbrevloGDQPjrsBQAABAMN9/KoEcK3OA8FTd7XP5l/rUWXtT6l5nwfoFbfpOZfm5y7JhgS/Dl4foQgWWB/9iKRE0Wtz+ppMv/in9D8u5Ildbb/7Rm3yoMJtvt9rYcjUMqJw1rm5qazDzoTywMWgAgW/kIBBM97Ha7le3IMoGHAHRJIS7f5UElfxnAJmJ+YtgKAAA8pXT/S4jx5wI0OAkA14UizecsX758i8X1avngaErhAXALCjPifAUxO8Mtzd/Lt0CZoeD3+z8MhQPngPGlLA52Kuj//HgFW9Y4xRz8dXV1BoByBc+7vi8rai5sY5WqK1MutzbuLpADgTXM/MMs3rKcpXG3MiMq5GYCniTw+X3bvzG7evZeBD6HwQ9Lorwdz1I6qq6pqck8oGzSl8H4UwHN+lsh5HF9bmZL4xzcbncZgGKLC9zT0uJfHYoEbjZZHAHgxQJpiA/B+JatSBw7nGf9/RFqCTwkYTsawN+H5Vsy8FJGhfUegNQC1davX18KwK7ggXNlKAVA5cquzvm1JBVuCd4NcCh7/ZgvdDu89ercGuI+AKPjcfMCAOgpjtcDGMMw7s/n9zvls2qbmprMUEvgcoCuAhAfxmPyFmZcYyuiE0Oh0OtKOpup4gwAWou+E9JaWvz/DUUCJzPhcgAfD9N22EZEt9qKxNRQS+CuZFtoCoVIZOl7oUjgdAmcAsabw6joLAkDnX5ptZfL3LJlY0rnbQgplMyW+zv1UDUOx8zJ6D3aWZEFpDV51rckk7wcQPZmx4Tf+U70Kek3oZDfD+At4t5lAO4NCnzZupiyHAuAzx400ny3AGYDaMfwIgHwH+Om/ZBwS+AXSg2OiuAokru/wBwOB/5EBh/GTD/HcHEzE95n4h9AyIpguPnGbOYmz70QCDxvKxZHMeESACvzuKjdDHqQSZwQDgceT/aFvqQ1Yyy+b+eqVatS2kZpKoqYFznyABCZFWrvIPMuKDUcDr+N3iXNbLFXQpgP9y0fqeBBgKvdDu/FAFcT6L58H5PEUH4UiAQCO3q2Hw7gDgBmnj9jHOCHIeT0UCS4YKiZ/dJ7m4X1wTz9BEcFg8GN4Zbm75HB00C4PY+FwMtgfHnc+JKqcDj401Ao9AlGIH6/PxEOB/4cigRmMNGpAF5An2cn59N94DUA37UVifJwpPnSgc5bYGYVBuvdlF8xRSlzc5UEyICsVNq2gtfk4/swuXTSLwh4JXt3JPf6zg3XKTE0pv1BAHEQ7gWwTVLiUeQ5Q85a1tra2gXgOq/D+5gEbgHhdEBpHqt0+QDAQpNt92Y9iQwrOdBjQAUfDAY3Avi+2+3+GUxRT4QvMXB8jg3KWgIeYTIf6VP7mp2qJxxuXgxgscMxs9SgxAUMzCfgmCyWwSTgX5L5GTL4sXB6WdM+AWDpQMpEb6Tet6iKVKQoEblxlbOCHRW7NLRp5qUAaGpqMp1O32UC8mUAo7N025vcbvcSK/K97Mzy5S9ucDu8z4BwDoPuC4fDW/N9EMo4bWmgJfAagDM9NZ4ZbKNrwTgHwKgcPc8OMJ4h4oaPN3+8OFV3ogLDp2B/dGrbo/pm1vcAuMfj8XyOTboYwGkApmdBoMUAhMF4npifDy0LvoaRlUhqSPQJ1F8C+KWvxlcWt8lZBMwE4yRYG+neTcAKBl4h8NIEJ15qaWkZUgxJKBRajV4PYE6wF9E3EgnT8qNmJ0+elJPsp0QsmUWrohGpa6jtnA0iEf9Kt8N3Dkjeit6zJdRPJKV42Heib85AW79tcZtMGPITImxPPiRzF0CfoHc3WW87ghcy6CQS5k7uf4oD/AmQf7sBLK/o2dWz9+oujp8DkvVg8kFxbvTeWSa/wETPdndvX9Lnmcgpbpd3PRgHWDszkUdnErRYUzNrkl0kZjJhJoGPA3BohopbAvQugNcIeI0l/WtMV1HLcMnaN1xwOBx7G0bxDGbzCDAOIYjJgDwAoP0BTMCukfBxgLcCYhPAHwO8FqA2Jqwlkit37NjxZmtra1zXqkajUSIAdsblco0jSbUg4QNzNYiOAbBXBpfcCOLXwfQ6mFptkoL+5f5oPlVodXX1mNHFJdusrlsmc7zFLiXhO9FXYZJ5qBSYSpImgDABhAnEmMDgGEA7iCGZsBnANjDaBSFqktkppWwvhP36Go1GowVAlu7nq/GVSkNOMwlTibEvCPuCMRq7nalORF1g2c7SiArIzu3x7W35MLsfDKfTd4SAXGHxZT8IRQKTdHfVaDQajVVk++hS7puxRwEECrFCheCpCmK6V+uuqtFoNBpL7ZWuAosxFewAIC0ANBqNRqMFQH6j5IQ0LQA0Go1GowVAfsMKzkhnrNEVq9FoNBotAEaaB8AQ2gOg0Wg0Gi0A8pwq6y+Z0AJAo9FoNFoA5Cu+430HABhr8WXjkydP7tS1q9FoNBotAPIUaZMKzgDg9qamJlPXrkaj0Wi0AMhTTKHiGGAdAKjRaDQaLQDy3AXAegeARqPRaLQAGGmQgh0ArD0AGo1Go9ECIO8lgOUeAKE9ABqNRqPRAiDvsVwAsGAtADQajUajBUC+Mn369CIAU6y+rpRSCwCNRqPRaAGQr0ycOLEKgGHxZbsikchGXbsajUaj0QIgTyGTpiq46hoArGtXo9FoNFoA5ClSRQ4A6ABAjUaj0WgBkN8eAKYqq6/J0Ov/Go1Go9ECIL9h6z0AQucA0Gg0Go0WAPnuAlBwCqDUAkCj0Wg0WgDkO5YLADZ0DgCNRqPRaAGQt8yZMacEwH5WX3fUjlFrde1qNBqNRguAPGX7uO1VAMjiy368pHXJZl27Go1Go9ECIF8rkUWV9Vcl7f7XaDQajRYA+Qwr2AIIyHd0zWo0Go1GFTZdBRaYahLNBvhaBluyDEAgNmH7q65ZjUaj0aji/wE8+ffM6SR7FAAAACV0RVh0ZGF0ZTpjcmVhdGUAMjAyMS0wNC0xNlQwOToxNDo0OCswMDowMN6+mLgAAAAldEVYdGRhdGU6bW9kaWZ5ADIwMjEtMDQtMTZUMDk6MTQ6NDgrMDA6MDCv4yAEAAAAAElFTkSuQmCC;strokeColor=#000000;" parent="1" vertex="1">
                    <mxGeometry x="330" y="218.4" width="127.04" height="66" as="geometry"/>
                </mxCell>
                <mxCell id="31" value="" style="group" parent="1" vertex="1" connectable="0">
                    <mxGeometry x="216.58285714285714" y="204" width="76.7" height="94.80000000000001" as="geometry"/>
                </mxCell>
                <mxCell id="21" value="&lt;span style=&quot;background-color: rgb(3 , 3 , 3)&quot;&gt;Ingesta&lt;/span&gt;" style="text;html=1;strokeColor=none;fillColor=none;align=center;verticalAlign=middle;whiteSpace=wrap;rounded=0;" parent="31" vertex="1">
                    <mxGeometry x="0.00285714285716665" y="60" width="68.57142857142857" height="34.8" as="geometry"/>
                </mxCell>
                <mxCell id="32" value="" style="group" parent="1" vertex="1" connectable="0">
                    <mxGeometry x="342" y="110" width="144" height="80" as="geometry"/>
                </mxCell>
                <mxCell id="8" value="&lt;span style=&quot;background-color: rgb(33 , 33 , 33)&quot;&gt;Parquet&lt;/span&gt;" style="text;strokeColor=none;fillColor=none;html=1;fontSize=24;fontStyle=1;verticalAlign=middle;align=center;" parent="32" vertex="1">
                    <mxGeometry x="44" width="100" height="40" as="geometry"/>
                </mxCell>
                <mxCell id="13" value="" style="aspect=fixed;html=1;points=[];align=center;image;fontSize=12;image=img/lib/azure2/general/Files.svg;" parent="32" vertex="1">
                    <mxGeometry y="10" width="64" height="70" as="geometry"/>
                </mxCell>
                <mxCell id="69" style="edgeStyle=none;html=1;exitX=0.5;exitY=1;exitDx=0;exitDy=0;" parent="1" source="37" edge="1">
                    <mxGeometry relative="1" as="geometry">
                        <mxPoint x="394" y="390" as="targetPoint"/>
                    </mxGeometry>
                </mxCell>
                <mxCell id="37" value="&lt;span style=&quot;color: rgb(240 , 240 , 240) ; font-family: &amp;#34;helvetica&amp;#34; ; font-size: 12px ; font-style: normal ; font-weight: 400 ; letter-spacing: normal ; text-align: center ; text-indent: 0px ; text-transform: none ; word-spacing: 0px ; background-color: rgb(42 , 42 , 42) ; display: inline ; float: none&quot;&gt;Extraccion&lt;/span&gt;" style="text;whiteSpace=wrap;html=1;fillColor=none;" parent="1" vertex="1">
                    <mxGeometry x="343.52" y="286" width="100" height="30" as="geometry"/>
                </mxCell>
                <mxCell id="40" value="V" style="endArrow=classic;html=1;exitX=0;exitY=0.5;exitDx=0;exitDy=0;entryX=1;entryY=0.75;entryDx=0;entryDy=0;" parent="1" source="56" target="3" edge="1">
                    <mxGeometry relative="1" as="geometry">
                        <mxPoint x="216.58285714285716" y="234" as="sourcePoint"/>
                        <mxPoint x="140" y="390" as="targetPoint"/>
                    </mxGeometry>
                </mxCell>
                <mxCell id="41" value="JSON2Parquet" style="edgeLabel;resizable=0;html=1;align=center;verticalAlign=middle;strokeColor=#000000;fillColor=#82FFC1;" parent="40" connectable="0" vertex="1">
                    <mxGeometry relative="1" as="geometry"/>
                </mxCell>
                <mxCell id="42" value="V" style="endArrow=classic;html=1;exitX=0;exitY=0.5;exitDx=0;exitDy=0;" parent="1" source="56" target="2" edge="1">
                    <mxGeometry relative="1" as="geometry">
                        <mxPoint x="216.58285714285716" y="234" as="sourcePoint"/>
                        <mxPoint x="84.10959082349882" y="157.57279364703766" as="targetPoint"/>
                    </mxGeometry>
                </mxCell>
                <mxCell id="43" value="JSON2Parquet" style="edgeLabel;resizable=0;html=1;align=center;verticalAlign=middle;strokeColor=#000000;fillColor=#82FFC1;" parent="42" connectable="0" vertex="1">
                    <mxGeometry relative="1" as="geometry"/>
                </mxCell>
                <mxCell id="52" style="edgeStyle=none;html=1;exitX=1;exitY=0.5;exitDx=0;exitDy=0;" parent="1" target="13" edge="1">
                    <mxGeometry relative="1" as="geometry">
                        <mxPoint x="293.2828571428572" y="234" as="sourcePoint"/>
                    </mxGeometry>
                </mxCell>
                <mxCell id="55" style="edgeStyle=none;html=1;exitX=0;exitY=0.5;exitDx=0;exitDy=0;entryX=0.5;entryY=1;entryDx=0;entryDy=0;" parent="1" source="56" target="4" edge="1">
                    <mxGeometry relative="1" as="geometry">
                        <mxPoint x="216.58285714285716" y="234" as="sourcePoint"/>
                    </mxGeometry>
                </mxCell>
                <mxCell id="56" value="" style="shape=image;verticalLabelPosition=bottom;labelBackgroundColor=#ffffff;verticalAlign=top;aspect=fixed;imageAspect=0;image=https://i.pinimg.com/originals/79/f9/20/79f920310cbdf0e01ca5dd5e6f5dc11e.png;" parent="1" vertex="1">
                    <mxGeometry x="203.46" y="170" width="140.06" height="100" as="geometry"/>
                </mxCell>
                <mxCell id="7" value="DATIO" style="triangle;whiteSpace=wrap;html=1;" parent="1" vertex="1">
                    <mxGeometry x="210.78730205932644" y="48.22857142857143" width="44.60634897033678" height="72.91428571428571" as="geometry"/>
                </mxCell>
                <mxCell id="10" value="&lt;span style=&quot;color: rgb(240 , 240 , 240) ; font-family: &amp;#34;helvetica&amp;#34; ; font-size: 12px ; font-style: normal ; font-weight: 400 ; letter-spacing: normal ; text-align: center ; text-indent: 0px ; text-transform: none ; word-spacing: 0px ; background-color: rgb(42 , 42 , 42) ; display: inline ; float: none&quot;&gt;GOBIERNO&lt;/span&gt;" style="text;whiteSpace=wrap;html=1;" parent="1" vertex="1">
                    <mxGeometry x="200" y="30" width="44.60634897033678" height="27.34285714285714" as="geometry"/>
                </mxCell>
                <mxCell id="47" value="" style="group" parent="1" vertex="1" connectable="0">
                    <mxGeometry x="200" y="30" width="490" height="750" as="geometry"/>
                </mxCell>
                <mxCell id="11" value="&lt;span style=&quot;color: rgb(240 , 240 , 240) ; font-family: &amp;#34;helvetica&amp;#34; ; font-size: 12px ; font-style: normal ; font-weight: 400 ; letter-spacing: normal ; text-align: center ; text-indent: 0px ; text-transform: none ; word-spacing: 0px ; background-color: rgb(42 , 42 , 42) ; display: inline ; float: none&quot;&gt;CONSUMO&lt;/span&gt;" style="text;whiteSpace=wrap;html=1;" parent="47" vertex="1">
                    <mxGeometry y="91.14285714285714" width="44.60541967139989" height="18.857142857142858" as="geometry"/>
                </mxCell>
                <mxCell id="12" value="&lt;span style=&quot;color: rgb(240 , 240 , 240) ; font-family: &amp;#34;helvetica&amp;#34; ; font-size: 12px ; font-style: normal ; font-weight: 400 ; letter-spacing: normal ; text-align: center ; text-indent: 0px ; text-transform: none ; word-spacing: 0px ; background-color: rgb(42 , 42 , 42) ; display: inline ; float: none&quot;&gt;PROCESAMIENTO&lt;/span&gt;" style="text;whiteSpace=wrap;html=1;" parent="47" vertex="1">
                    <mxGeometry x="55.393651029663225" y="45.57142857142857" width="44.60634897033678" height="27.34285714285714" as="geometry"/>
                </mxCell>
                <mxCell id="45" value="&lt;span style=&quot;color: rgb(240 , 240 , 240) ; font-family: &amp;#34;helvetica&amp;#34; ; font-size: 12px ; font-style: normal ; font-weight: 400 ; letter-spacing: normal ; text-align: center ; text-indent: 0px ; text-transform: none ; word-spacing: 0px ; background-color: rgb(42 , 42 , 42) ; display: inline ; float: none&quot;&gt;GOBIERNO&lt;/span&gt;" style="text;whiteSpace=wrap;html=1;" parent="47" vertex="1">
                    <mxGeometry width="44.60634897033678" height="27.34285714285714" as="geometry"/>
                </mxCell>
                <mxCell id="46" value="DATIO" style="triangle;whiteSpace=wrap;html=1;" parent="47" vertex="1">
                    <mxGeometry x="10.78730205932644" y="18.22857142857143" width="44.60634897033678" height="72.91428571428571" as="geometry"/>
                </mxCell>
                <mxCell id="48" value="&lt;span style=&quot;color: rgb(240 , 240 , 240) ; font-family: &amp;#34;helvetica&amp;#34; ; font-size: 12px ; font-style: normal ; font-weight: 400 ; letter-spacing: normal ; text-align: center ; text-indent: 0px ; text-transform: none ; word-spacing: 0px ; background-color: rgb(42 , 42 , 42) ; display: inline ; float: none&quot;&gt;GOBIERNO&lt;/span&gt;" style="text;whiteSpace=wrap;html=1;" parent="47" vertex="1">
                    <mxGeometry width="44.60634897033678" height="27.34285714285714" as="geometry"/>
                </mxCell>
                <mxCell id="68" value="" style="group;fillColor=#60a917;container=0;fontColor=#ffffff;strokeColor=#2D7600;" parent="47" vertex="1" connectable="0">
                    <mxGeometry y="360" width="400" height="290" as="geometry"/>
                </mxCell>
                <mxCell id="70" value="" style="shape=image;verticalLabelPosition=bottom;labelBackgroundColor=#ffffff;verticalAlign=top;aspect=fixed;imageAspect=0;image=data:image/png,iVBORw0KGgoAAAANSUhEUgAAAgAAAAEKCAYAAABkC+0BAAAABGdBTUEAALGPC/xhBQAAACBjSFJNAAB6JgAAgIQAAPoAAACA6AAAdTAAAOpgAAA6mAAAF3CculE8AAAABmJLR0QA/wD/AP+gvaeTAABj00lEQVR42u2deXhbxdXG3zNXspM4CQlbSLwm7A2ExYDRapGE0LAVKAbiAAVKw0c32lIKLZSl0Ba6Ai0tTSlQIDbgFijQpkAIsjYngEshCWUpSWzLCSEsWR1b0p3z/WFDs8i2ZN2RZHl+z8PzEEu6d+7M3DnvnDlzhqDRaDQaTQasmzdl3ziJ+cSoBeFAAGUAtgHYAMYKGPQ36uEXypuiO3Rt5Q+kq0Cj0Wg0QyE6v7RMMn4O0DkAigb5+mYmvkPE6E4tBLQA0Gg0Gs0whAGKziv7uiT8mIBxaf68gyEvq2xYt0TXpBYAGo1Goxkuxr8ORru97F4CLs/gMiYD11c2RO/QNaoFgEaj0WjynFV104vG27c8wuA6a9QE/7KisfO7umZzg9BVoNFoNJpUGGffdKdlxh8AiK7uqC+7Sdes9gBoNBqNJk/pqC+bz8AjSi7OdFlFY8cDupa1ANBoNBpNPhn/eWUzmLAMwGhFt9ghwM6yhs5/69rOHnoJQKPRaDT9T84BYuC3Co0/AIyWhIY1l1SN0jWuBYBGo9Fo8mH2X1/+JRA86pUGHW6LJW7WNZ499BKARqPRaJLy7vyDxhej+20wDsjSLU1B7C5b1LlM1772AGg0Go0mRxTJ7q9m0fgDgCGB+1fVTS/Sta8FgEaj0WhyQEdd2Wgi/lbWb8x0+Fjb5u/oFtACQKPRaDQ5mf7jbIAm5eLWRPjhmguqqnQjaAGg0Wg0mmxPxBkX5/D2YwyR+KVuBcVCS1eBRqPRaHZm42X7jtvRPeojAPYcG6jTyhui/9Atoj0AGo1Go8kCXTuKfLk2/gDAwF06N4AWABqNRqPJlmEgMTtPinKQETP1YUFaAGg0Go0mSzPv2XlUmh+svahyqm4VLQA0Go1Go5B186bsC+DwPCrSaGHKu3TLaAGg0Wg0GoXECUcj7wLE+Yy2eVPO0K2jBYBGo9FoFEEwjs7LcpH47boFU8boFtICQKPRaDQq5trER+Vp0Sri28W1uoW0ANBoNBqNipk246g8Ltv3Oi4sO0i3khYAGo1Go7Fy9u+DDcAheVzEUSxxj24pLQA0Go1GYyFtkyYfDKA4z4s5p2N+2dm6tbQA0Gg0Go1FGML43HAoJzPuev+iSSW6xbQA0Gg0Go01TB8m5SyPJYqu182lBYBGo9ForIDoiOFTVr56zbwph+lG0wJAo9FoNBnDRw6jwhYZZPxGt5kWABqNRqPJgDWXVI1i4GALL7mRCAsAsELBMrttXul5uvWGhk1XgUaj0WhETE4HYFh1PQLeKF8U/WN7fdkMAF9XVW4C/WrjZfsu3u/+D7cWehu9O/eg4tETdhwrIY5hwVUElDFjLwIVAbydgDZJvEaY1FJmRl+lJphaAGg0Go1mEENqrfufQW8AQA+Nur6Yu78IYLKigpfu6B51I4BrCq1NXl1Qbd9v68YakJxNoNlA9/Gy19iD+DOhhU+dLAyAmMAC6BBlH7fX898I9NPyhui7/Yg0jUaj0Yx02utLfwnQdywTAMSXVC7q/DMAtM8rnwfiBoXFjzOLYyob21cN5zZggKLzy46Q4FkCNJsZtQDGZnhZE6A/mkXGt6c+uLZbCwCNRqPR7C4AngfoZKuuJ6U8turRda99+u+2+rKlBJyk8BGayxuiJ5HSmAPr6bxgSrlJxmwQzwZ4FkCTFN3q5QTbz5zWuGbDp3/QSwAajUajAYOOsnBGmIhvHvPmLn8h8XWw/DcAu6JHqI3Wl9WjIboon+v5g7r9xu6w208UELMZmG0CxwJMWZiTn2Cj+GPsw2zyI6E9ABqNRqPBfy+atH+Rad9goZpYWdEY3SOmoG1+2c+IFa7VE96Px4oOO7Bp9eZ8qds1l1SNop64U0DMBvEsANWwMNgy7aZhfL+yMXq79gBoNBqNBvZE8VEgaZ2RIbye9D4l8mZzmziPgUo11g0HFNljtwD4Vi7rs62+YhogZwvQbBlLfJ6IxuXLygQJXLWqbvqvpjetimkBoNFoNCMcIvMIix3CK5L9ccrCdV1t9aXXEOhxZTNc4GvRC0sfKHuk8/Vs1V/7+eUHstEXuAeeCch9esvC+edmZxwwtmjTHADPagGg0Wg0Gku3AArCG/19VtnQ2dReX/qClQGHu2GTUtzDgEdVQOD6ugP2ixfZZzLzbAJmATyV+gz+sBB8jBlaAGg0Go0GAM2w9HJG/wIAAISJr8ve7yg6ephdHfXlX0JDx4NWXG3dgiljEtsMD8CzGZgdB2aAWQzjILqDAB0EqNFoNCMaroPRYS/bCmC0RZf8uKIhus9gX2qvL/8xwD9Q+GgfCRsfWvZQ50dDqZN2e8XRwKcJeNgNYFTh6D36Q8Wijv/THgCNRqMZwbSJyYcI64w/GEhp7Z3ifBvbMQ/AVEWPto808SMAX0upHnYK3OsAzybIiZ89UYFB4E8AvQtAo9FoRjRkCGuPACasTOVr5U3RHe3zyr8D4ieVPRzTFe3zyx+sWNTxyu4frb2wcjLJxGxiMQvg2YAs7TX3XPBtzqB3tQDQaDSakS4ArA4A7GcHQDIqGjueaqsv+wcBpyp6PAPMj0bnl84HEDUlHyNIzGZgFqQ5HSB8llR/BCGFeEkLAI1Go9ESwNoAQHPgAMA97m7SN2HwTKhbY58mmVoAgIjAusHfq3q4bU2fWNNoNBrNCMZKASCLzZ60DuSpeKzjPSb8TDdDluQeYeGn/68FgEaj0YxQNl627zgAVRZecs3+TRu3pfsjEcPtAFbrFlHODjL4T1oAaDQazQhne1fRkbB2O/iQsu+VN0V3EKcWra/JaPZ/187bIrUA0Gg0mhFrEMjSAEBOIwBwDxHQGP0nmJ/WraIGBj6IxYpu3/lvWgBoNBrNyBUAFm8B5JWZ/Nxk+1UAduiWUdLW39z9lEQtADQajWbkTguPsvJygimjA3imPrp2LUA/1Q1jsfEHHq5Y1PHYHu2lq0aj0WhGrGWw0gPQVRaPZhzI1/NJ8c8AvKsbxyqNh7dj8aJvJBVsuno0Go1m5LHu4ikVACZaeMmV1AQz04scvPi/PcxCBwRaY/y3gsUXd3f9awGg0Wg0IxgzYXEKYMZKqy5V2dj+AgN/1a2UWROz5HmVje395mXQAkCj0WhGIJItTQAEFrzCyuvZpPw2gO0FVu0fMfBXMIJZmP1fXfVo598H+o4WABqNRjMCIbL2DACW6aUAHozSR9d1MHDrMK/m7SD8E6BrpJDV5YdE97ePlReDMEWx+f99ZUP0rkFFln4NNBqNZkRiqQAoTpgrrC7gtvhevx5v33wJA4cNkzqNg7GMCC+yoKVbe8Yvn960KrbTrJwS840HAD5QYRmeK1/X+c2URKB+BzQajWZksapuetE4++atAIosuuT6ioaoklltx7yyWia8lMf2ajUBSyR4SSJe/Hx/AXcA0F5f/mOAf6CsJMT/Me1259QH125K5evaA6DRaDQjjL2KNx0uJRVZeMk3VJW1vDHa3F5f+jhA5+dH7fEGgghI8BKblItLH13Xkcqv2uaXfgms0PgDHxLRmakafy0ANBqNZgTC0uIMgMwrVZaXbHS1TOBUAsbloLo2A/ATsCTBcsnUxnVvpXuBjnlltcz/O4VPAd2C+cyyRzr/m86PtADQaDSakSYAgJMsvZ7ACpXlLX8o2tk+v/wWMP8iC9UTA9AC0BJBcklpZ+er5EdiqBeLnl96iCQ8AeuWW/ZsTqbLyhqjLen+UAsAjUajGUF0zCv7IgMXWWqBTH5Ddbk/KNn/7v23brjE4uyFfXoIKwBeQkRL7CIeOODhDZZsP4xeXLqPTNCzAPZWVS/EuLm8saNxSL/Vr4NGo9EU9GyfovVlx4NwNjPOAXCIxbdImEW2cVMfXNudBfFiVUBgOxhLAFoSs8VePOjhDR9YXda+QMsXAHgVtu2iioboRdQrYtJGewA0Go2m0Ix+HYx2W4VDkKzrAM4BUDY0E5ESb2fD+AO9AYFt88sWEePCNH+6DaBlDF4CiCWVDe2tqkVXh33LH1Uaf4DCsU+KvzxU468FgEaj0RQIHXVlo6VNzhYkTm8HziLI/Tkrd+YV2XxOU9q/a6P46QAmDOSVAPB67/Y8uWTj2MnNxy1sjWetLerLbwD4YoV1vjZmxM85eHFHTyZX0QJAo9Fohq/R31va+XQCnc3AHIIYw8jy2i6Lldm83bTGNRva55ffAObf7vRnScDrDLwI0BLbWDM4ZeG6rv99vC5r5WufX34+mG9ReItN0pSnHtSQ+bKFFgAajUYzjIjOLy1jprMAnMVALYFyOo4zzDeyfc/yRR2/a68vsxFTFQSW2WPxpZOb3t+Y87aZV+qQzA8q1GAJZnFe1WPR/1hxMR0EqNFoNHlOW33FNECeQaA6gJ35NHYnYFZNa1jfNtLbaM0FVVWGiC8DaJI6tUVfq2js+J1Vl9MCQKPRaPKMnSP3JeNsAg7N06JuLm+ITswkEK0QeK9u2l52eywC4HPq7kK/rmjo+I6VV9RLABqNRpMPRv9miPa3K5y7R+7n9yyNV4x0488+2DrsPU0AKTT+WFwe77jG6otqAaDRaDS5Mh47b9d7F+cRyQOGmTVdMdLbsGNK6d0AnazwFqt6aNQF1ARTCwCNRqMZxrx/0aSSHmmbS0xndwCnEeReDAzPeXSWdwDkG+3zy68G85UKb7FOEH/+4EX/3aLi4loAaDQajWLWXFI1QcTiJwvQGTETZxMwtiAejDBiBcDaC0pPA/MdCm+xgyTOKXu0M6rqBloAaDQajQKiF5fuYyZwmgDVcSwxB6CiQlsst7H55sg0/lOOEYIeA2AougWD6NLyRzuWK20//ZpqNBqNNayun1xpkDibJJ0jE3ARIAo4Qm79lMZ1H444YTe/tEwyPQugRNU9GPh+5aKOx5QLOP3KajQazdBpq6+YBjLPJ6ZzAByHrKfiyxFMz4+0tv6gbr+xO5ieIWCKunrF/ZWN0Tuy8TxaAGg0Gk2arFswZUx8G51LTJcCshZMIymnygpmNIgE3zWS2pzrYETtxY0EHK1w5v/StsReVwLRrDyTFgAajUaTItHzSw9hg65ObMMFBIwfIanUJBGWQeIplvRExWMd743ItreX/ZKB0xXe4h0Rx7nTm1bFsvVMOhOgRqPRDEJbfcU0InkbGOdBXeBXPhED8BIzP8mG7emqR9rWj+T2b59X/lUQ36PwFh8R4ChviL6bzefSAkCj0Wj6oaOubDQX8fVguhrAqAJ/3O3EWAzCU4ki29+nPrh2k+4BQMe8ss8z4Rmo85jHiDGnvDHanO1n00sAGo1Gk4RofenRElgEVpriNdd8BPDTEOIp6uEXypuiO3TL72T855cdyYzH1NpKuqK8saM5F8+nBYBGo9HsPvDXl50jgYcBjCnEx2PCUwbzk6XxzoCKFLOFwJq6qgPAiWcAjFd2E6afVjR2PJirZ9QCQKPRaHairb60joGGAhsfVxPwrGTRVNHYHh7pB/gMqpDqykazPfEkA5XKbD/w14pDO27I5XNqAaDRaDR9rJ1XOpNAhWD8GcArzHjSZsgnSx9Z97Zu3RQr7maI6Nt4CMCJCm/zin2svJhuhtQCQKPRaHLM+roD9osRNQ7jcTFBQDMTPUkGP1X+ULRTt2r6RN8t+zETzlV4i3YpjC9MWRjtyvWzagGg0Wg0ABJ22y8J2H+YFbsLwPMMflLE6dnypujHuiUzsMzzyy9j5uuUeReArYJxRr5sq9TbADUazYin88Iph5pSvAlADIPifkKgJRLy2TGjep7c7/4Pt+oWtMD415d7AX4eQLGiW0gIOrvikY6n8+WZtQdAo9GMeExpXAFw/hp/RicE/42Zn9w4dnLzcQtb47rVrBaA/JRC4w8GvlOZR8ZfCwCNRqMBQOBz8jAs/h0CnoTEk2WPRl/+X+T+Ot1gFrJu3pR9E1L8HcBEhQru95UNnXl3doIWABqNZkSz9sLKySzNyjwpTiuYnmTQU5WN7at066jl3bkHFSdox5MADlR4m+fK13V+Mx+fXwsAjUYzsmf/HJ+W46X/dhDdbTPMpikPrWvXLZIdGKD2vbvvA5Nb4W1WxeNF55MfCS0ANBqNJt8MgUkTKHf2v4eZr6k4JPqXXO8JH2l01JffQMwXKhQYH0hpO/3AptWb81b86m6g0WhGMm3zS2cR05Icy5C1gPgTJO6veLRDL/KrNv7zymYw4V9Qd7KjCUEnVTzSEcznetAeAI0mT/Ad7ztA2uUhUtBeffr8E5sNK/1+/6ZCf/a6ujpj/fr1Q8q5Pm7cuK7Fixf3DHkQJI6anOu5EFUBfCsEbmqvL/s7AQvLDon+U3sF1CCJjyaQumOdCS/ku/HXAmCE43bWPgnwWXtORvBmqCUwXck9Hd5VIEweaCoE4CMAa5n4pUSi6P7ly1/coKoOXA7vFUS4N9lnwoaKQCDQoXLUd7lqfX1uyDkJyLLe0Yk/q4pEDHA7vf8G8KitSPwhUzHgdnoDADy7loKXhMLBk1O+hsv7Ohgzdmu1J0ItgS8OtVzvR9/3gcSQZuHbNm07G8BTQ733+jGTV++/bcM2AGPzZEz+AgNf6HinrL1jHv5Egu8vW9QZ1SOWdbCwvUDS7IGibX/M6rYTWonQXWFk4nF4TgD4C/2o10MdDsdoy42/2z0RhM+hd7tNf//tDeBgACcT00/sRnytx+X5NhQsVzkcjtFE6PcwDhmXRykTX253jdvpbSbmpQAuA1A2wNePBnC7GWcrIomP2GOwkmJFqj+urq62g3FYkj6zIpNCSeDIof7WJHtG9z5uYWucgUAevqYVTLhFMq1try9/um3elDO4DgY0GVP1SNt6JixU5wBA7Zp5Uw7TAkCTnwqY6PYBjKphY9vhlr8UJs0Yws9GMdOvPK7aWyzv/ML2rYEMLwljhtX3nDNjTonb5V0EKZbtMRMf1EhyWyb39nq95Uiy15nSMN4lRSWHASjasz/hjYz6BtHQBABjeySydI0Fb8Rjefy6GgCfQSSe7rCXdXTUl92+9qLKqXoUy4yiWOJWBlRlURQ2Mn6kBYAm73C5aucCOGnA4VAIy2e/Ugx9lsfMN7hcPstO5/L5fBOI6bsD3lOypXXgcMws7Rrb7QejfmhGUmQkAEwzef0zUcoCwBRIKoqMRGYeABqqB4CwqteBkBn2sfwXBj4YBq/vZAauFab537b6sr+3zys/i316KXdIFdn0/kYivlvZJAt8blt9RbUWAJr8anPmHw9ubNjy2S+Bjshokijlt60qS7yHf4De5YaBCmxZHXi93nKDEi8DOG7oHguZkQAgTmpkze7urW9meI0dkyomrc6kTzLjc0McZVdY0T5TFq7rIqY7htN7TMCpIH6yY0pZW/v80tvWXFBVpYe3NEWx3f4LAKoOUCKC/HE+P79WjiNu9u+dR4xjBp9xw/r172TGg/EmiO7aaaY/nghfQpK1ahDm9E4WwZnVgWsKMX8tha8eXF1dPaa1tTWjYzvnzJhTsj3R/TcCpvTnHGHAT4wnWNCbIiE/gsBECRxDgs4FwwXA3L59e0aBYAQcuWfF0X/Tej7GjCQLR6uamprMoXtGfNNAsiTJR7dBiuaBR7DEaqu659bE+N+Os2/+MjBEMZI7poDpekMkvt9eX76UIRduHHvAU/q8gMGZ+uDaTW31ZT8j4HZFtzhl7bzSmVWNnUu1ANDklOrqajsx35JiPJ3VAoCSGnWBl0Lh5l2CcWpqahbabcVvg3HAbt+e4Ha7J4RCoU8yEyK2WwAek8I3jeLisdMBvJLJ7brGdS8cQHQtYxLfCIf9ryb5rBnAnS6X91QwbmttzWxAZ8KRSaTTijRbMYkHgDOahRvgpO5/CfFYZJl/Zbbej+lNq2Id9WWXMhBEkjiH4eAVAHg2gWbvv33D++3zyh+AxJ8qHut4T49+/WMfK3+T2Ca+if4FeoauGvoxAEeedhjNSGF0UckCgJLkvKbWJF/f2+GYWWrVvX0n+ioB7LHPm+WeBmj58uVbwBRK7pngjHYnuFyuQwl8yZ4TW7wGYI9ZbKZLIW63z93fmj8x/vzJ5o9q+zH+nxEOB/5BQs7KqP59PhsYh+75fKkLAIfDsTeSBE1ShjsAKHlsSGzz5o3vZPsdKW+IvszANcP+ZWccAOLvw+B32uvLX2irL61bVTe9CJo93ScL13UBdJvCW5zYXl/+BS0ANDnD5/ONhUi65W0TSXlV0s4hEpZ5ARK25LM8o58ZKIGTDVbc3d29MSNjI42fIJnni+h6AG1JjHRmcQBS3tHPTPrJYEvg0lWrVsVSuUymXo94PH4okux5TibA+sMGW/IgQtPISABw8riCN1OtG6upbIjeTcAdBfLqf+oVeHycffP7HfVlf2ibVzEdml34YOz+9wFQ6CnhH+fjFk4tAEYIZpy/k8SlDgC/+Hjrx68Aex5WQdK6ILh+gse4R/asTCZWOPkWuTWZuMGdztrjQTg7yUevhsPN/wTj7SSfDVkEeRyeWQCcST5qt9nFxcgwliGtF51Fcjc7Galv3+snKDLORoaBeHt6WYjxei7fl7KG6PdB9IcCGwYmMrCASK5sry97ta2+bEFHXdloaHDcwtY4ATcpvMX0dntpfb4994iKAZg7d27xli1b9hFCTKAETZAsPlsHZoN7gMQHiURi/fLly7cU2Ox/30RMXr3neI6PJJl3r1q1KuZxetcycNBuo7BlAoBZHrFH7AFj7e517XK5xiV65H2gpGdz/zMztcs/RZIACAlc3zsRpbcIPDeJABhi4CFd1I934ya/378tm32A+9mBQTCvczu9KW2jY8KJSWphYyaZGn0+36hETB64Z3lxvNvlfbx/LUJvBcPNN6qqLwKYF3Vc2V5ftoaAnxTgZKmagD+wHXd01Jc9DsJvyxdFV2AEU3ZItLHj7bJrQDhKUZ/60btzD3r84MX/7cmXZy5IAeByucYJKY6VwDECdDQTDgZQtXXz9skEg9gEmHqnuDvNOAAYsBsG3E5vN0BvM/CKAF42QS2RSPaCkayf/cvrkWz9nfGLcCS8tc9AvAXwQbuN+Ba+CEkSvRALt9N7+04vSBUDtaCkngpmEg9kMBs/hYFZSV7Klkgk8HzfLZJ5ACa43e7yUCiU9jGtTEiWXnfzx5s/bsh6J0gevQ8CX57GNZKRUQKgRCIxHRBGkoJ9DgNsDWTw/aqrjABGQ/SOtvrS1QR6AEBJAQ6XExhYAMZX2uvLAjDpyyM1aJBuhmy/kG6E5L8pukPVqIndXwHwWy0ALK5Zt9t9ArFxGjPPAuMEJtgy2C82CuCjCDiKgcsFGG6n910GN5Hgx0Oh0OvDpWKczpmVzIkrk87+hXnPZ/8mfosZp+/2pUN8Pt8ov9/fnUkZpk+fXgTsGYAGUCWAa3exL9zvYPx4aJBguYH6BxP9JKkhkeLGnTwEb3EyK2liBoC0BICvxleWgJySxHI9l4u1bSYcqeK4m4wDACUdyUO6L2dNkFc2dDZFzy99XQr6Awi+QjR+DGwThEXlI3zHQMUjHU+31Ze1kKKofSZc//5Fkx444OEN2/PheYe1W8tb4z3Y7fL+1OX0roYUy5j5h+hdc1UhbA4m0A8gxb/dTm+gL5te3h+nbHDiFiQ98IJ+Fg6Hd0qDmXT2azO7zYz3RE+cOPFwAPYMzMTbLOSVQ/2121F7AYBjk3wUCS3zf3YATUwWvZX89ulnRYzb+OB+lEzWI9tdLtc4AiqVDGgyMwHAQ8wAmGngYbqUPdb5TnljdCaYLhsmGQPTYbHdJo8oXxT9IzQQAj9QqLQOiJm2q/LmWYfjbN/l8p7qdnr/KQ28DcZ1BFRluQweYv6H2+n9l8tVe3K+VpTT6TuCCRcm+ehDSYnf76pMjaTGz4qUwMwikwyAL9tMmj3UKPjq6mo7Ef+on87/w53/3beW/XGSl3YIsRA8sZ/uuzHb/cCQxpGqxKpMI41wP/UxJAGQeeDhEEoKcEVjxwPFRnwaA98CsH6Y27pPGLiioiF66pSH1g3k4RIej2e/kSIAyh+J+gE8r7Anfa+jrmzvfHjWYbUE4D7RNxtC/hiME/KkSEcT8/NuZ+2zNpOu9C/359WRnQbkjxlJt558SGz8wu307jSSm+OS2QgrUgL3swNgMD5gxs/HTyj5TSZnvY8pHns57x7b0MsOCZzvdnrPT2HkT7sOBLOZdDkBPD7b/UASHdHP2sqLIE7NA884uG/JZpdLj91W/GaGxUsmDv8DwkAu/h0qj4gejD737V3vXzTpvnjCfhkTrgJw4PAyc/xozEhcddDDGwb0ZrhcrunExn1S8tMAfjpSRABD/IAgT1YknPeCHd8DcJ0WACngcPgOM4T5G7Ccnafd5fSEwW6P03N5MBL8a16IJbe7hiXO6Ofjw/r+23V+k8x4cOZbAZOnoMXHIP7XTv9OgLERoHZifmnshLGhTAw/0JuCt4u6b+wnrmA0gAUpXirtlMDEtJGTVikdlfXOQDwjSR2sC0UCKb9PbmdtI8CVu7Xr6uffeH7Ia5l9u1Mm7+kxwl3hSCDvt+D1CYHf8M24p/3tKacRGd8EeHaeF3s9AV8vb+h8YqAvVVdX20cXl3wHjL4lRLoTI4jKhvbWjnllf2XCuWoEBq6Kzi/9bdmizpxOGvNaAMydO7d426aum5jk1WDK9yxWExjU5HLU/sJeTD/w+/2JnJbGpNtBmatXYUFKYEZSEfFUKBz8ssoq6Brb/e1+ch+k7UxJNyWwNGQUMtkKG5/scrnG7Rp/oViectIAwDRd6HxEkutmtANAxmTykwWBYbUdjW6GBNY9A+CZtRdMOcYQ4tsMXICM4l6s7wYEPII4vlXeFB3w8Buvw3uMSfgT8L/01cy0GiMMknw9G3SWIjs5SrK4HsCVuXzGvI0BcLlc07du7lrOxN/H8MnLTUR8TSIm/1lTUzM+V4VwO9yng8hnkVLdJ5OUwD6fbwKA0j2NBysd5N1u90QA37HqegbJtIRQ37bBZIPmXsTG1Vl+yafv2VFTN7LV1dV2AIckce1k1Iayn+RQoli8iWFK1aPrXitviF4shVHJwC1Qd9JcOqxm4pPLG6IXD2T8HQ7HaLfTe7skvELY9eyKoiJaM9IEQNljne+A8ZBCTfbljgvLDtICYDc8Ts8lxMarAB81TPvOLLtR/EJf7vTstymJWy29oDCHvAwQj3PSADShepYn6QYAEy273NACAZ/r54Pr3Q736SmI4Ckul3d+JuV2OGaWMrDPHiVLI3q/pKjksGQinJCxiEt2sFC73+/fNNyNR9UjbesrG6I3j4r3VDJwBQFv5aAYCQLuLjLiMyoXdb444Kzf6fUaZP83erfl7h43tNXv93+IEYjNLm8BoCpxj50lbsnp8+VTZft8PlsiJn/JwDcLoO+cYFDRUqfTOScSiWRt25DbWTsf4KOTfLQRxAPnL2AaD+wZYEmSjwKweEguEclJE9CYZCoTAF6vt1wm8NVkdhzEgx/LyeTd3eARKG0BQAZ+yyauSCK0bSDxhNvl/SUJ/lUwGNx5ZwB5Hd4jJPElYPoKUWZrrwbkkf0o/5TrXyJ5ECGLjAVAsiOf3+3z3vQ/aNls8WxnUhwq+zdt3AZgId+M+7IcJ7CCgMvLG6IvDzLmTkjE5B0S+Ar6DXgbee7/T5ny0Lr2jvqyexlQtXXvgrUXTPlF1aPrXhvRAsDhcIxOxGQTgNMKp/vwUQL2f8yZMac2k2CpVOlNuMM39/MSXx0KBx4ecDCo8ZUlDNmx508z2AkgkhxBS3g/ElYnimSCbwFoVJL2eCwUDg6aj9vt9L6RZHaadkrgYDD4ptvh/QsI5yVT/2BcxyZd43Z6XwewkYDxDBwkgf3+NxbL9kzqgoR5JO8ZjWjGEU95RtpPEOeOyZMnZ5I0RoD2XJoA02wwDeg2j8f4PvQarGHDLnECF0451pDiW4riBOIE/GpLfK8bpzcNnHDK7a49IxGTv0eSJbrdGHHu/11ENMvb4iQuI2CcgssLwxC3Ajg9F8+WF0sAPp9vrCFsTxeW8f9sRKveMbb7cZ/Pp1xsTRy/z5UApiX56B1bETUO9nv/cn8ngG1JBuWhL8UkW+dlde5/l8t1aD85+E2TjR+lVuSkyXomuN3u8nTLYyJ+JcBtA07Se5MUncK92cd22W9tMmUkAPo5ae/dlpaWHak3ISfZqkdvNjU1mUMtl9M5cyqAsUMypsMsSHB3qh5Z9y8VcQIMtDCJo8sbotcNZPxramZNcru8j6N3a18K8T1yxHoAAGBK47oPCXynMgvBOK1jXlntiBQAPp9vbCImXwDT7ELtQAycGo+Zv1JdjyB8P/mAyTeluCuBGXg3yQUO8fl8o4Y2VifN5/6Guso27kASzxYxHmlp8ac4602aFfHTlMBp0dLS8jExzhvqIM8s2jOrkGRnMKRnQJn2FBGcoRE2OH7kUH8rwCsLYVzYPU6AgbeHeKkuBq6riEc9lYvaBwygdDtq64qM+Cow6tJo/xHtAQCA0aN6fq4yAyQT3zbiBECf2/9pACcWegci0DfcDu/Fqq6fiMnvApiU5M6rgpHg42mU07KUwE7nzAoAE5IMKEpmcB6H5wQCzkxmutmQP0m9sSh5ul4aWlbEYEvwZZOFC8nE1SDEYluHLAD6vE6H7VH/MvW1+/7SCGc8CxdiyMtKCSRWFtLYsH/Txm2VDdGFFYdEP8cszwRoSRo/fy4B83OVDdE7qAn9emS8Xu9Ut9P7PIgfTxYUOsgLMaI9AACw3/0fbiXQzxVaCHdHfdmpI0kACEH2RgAnjZheRLjH4fAdZrnh603T+e1+lOWNAGSq12KWSY3fUFICC44lD0Az1WwBZKLbkSSQiUEPhEKhNHLwi7f7ceUM2Wi1tPjfGrdXyZFE/L2UvAGM7SD8IZ3kQ3uoHtM8BMCoJC/9itT7g+2IpHWaoYjjoWWHBIAN2QyqzerwcDNkZeO6ZyoaOk6WQlYT8DCAeD9f38TAFeUN0bnTGtYPtMQk3M7aBTKBNwAMKW25YWoPAACYRcZvAXQo8wIAt/PN2bXJOQsCdDs9PwXwhRHWh8YaxH+prq4+IZOBfc8JK41lpsv3NNpshsOBJ9O6lsF/hilW7nmtRNp7syUV/UewuUcA3NiJJausrliHwzEaTL8H8Ps9ZozSFkjnWt3dW98YXTT2vD31m8xorbYvs+HPq6ur7xxtH1dLhjyFJSpAmAzAAOMjEN6EoPCOHdtezLSPGN3Gxwkb7/EcbMjmlAcIG0dlnPYMYqTEskzKJoGfCSn+kH5fN7eMhIGi6pF1/wJw8bqLp9yQSIhvoDfoca++Sng8IW3fnNa4ZsB0yE6n7wjB8j6AazKxS9vj29u0+QemPri2u62+7DYCVGWpPLLjnfLzgI5HszcnzQEep+dCBj08crsSPxCKBC/Tr5RGo0mF9y+aVBKXdi8kOssbowPG0HyWxhfo5yTQtFgXigRKdQv0jdw+2DqmlL0J4GBFt3j3g7GTph+3sDVekALAW+M9WBpohZotFcMGAl8ajAQf1K+URqOxCpfLdyIx3wfwdIsGqnAoHHDn+pmA+Kpsps8eiPZ55fNA3KBMZDD/X2VjZ1bOwsjqeoPP5xslDTw+0o0/ADDo9263+yhoNBpNhlRXV49xO723E8uQZca/1xrlNADQW+M9mFj+DbAnfaZXF1Tb2+orJmazTOWHdjwGxuvqJof0w466stEFJwASMXk7gKP16woAGAVTNLhcrnG6KjQazZCNpNPrHV1UshLJ0/hmaP9zFwDocMwslQa/AGB/wZw0aHSfLR+VEuTGtvqySFt92c3ReaUOrrO2DvYw0DdDSubr1d0ApbDh6wUlALwOrxPAN/TruvO7RX/v7u7u1lWh0WiGgsfj2U8y/gHCVCUGIkc5AHw+3wSDEosBqgT6S0YFfDR+n04AJgEOAm6SRJEOe9mm9vryF9rqy65ac0FVlYryVT3a+XcAzaqenwnfz4ZnIysCYO7cucWScB/y+PTBLPMhE04PtzR/r7U1O8EeGo2mADHhBaFE3WQ0+zkAfD7fqHhM/g07pePmZOdGADhuYWscvEfmzrEAzybgTkMk1rTXl73XUV/2h7b60rr36qbtZd0MTtygsBomEszvqK7rrBjkbVu6rgZweA5ej/UAXgShgYBFYDxBvWe6b8rhKxu0meKYcDjwDz16aTSaDIfwA5Ve3RRZFQB1dXVGPCYfIcC7qxAZIG8EDZoZchoDCwj0uN0e+7C9vuzVtvqym9vqK6oz2Xdf2dgewhAPSUtRfn17TV3VASrrW3keAN/xvgMSLK/LYh96F6B7bZKe8C/zr+2vX7tcvmOJ5Vno3V+7fxbKJRl8u73ISDUtr0aj0Qw2DZ2qcC9Xj3+5f11WZ2zrNtxDwBeTfLSf0+ncP3kSKLEqjTO6bACqCagG5E0d75Rt7KgnvwQvMYj/UbaoM5qWiWZcx4RTFE2mS0RR4gdQeDqu8m2Abpf3t2B8LQt9ZwNA14QizYuQRua7uXPnFm/dvP3rAG6Cut0JH0jgokgk8LwesTQajVV4nN7nGJij6PLvhCKBQ7P1LC6H5xYiurFfbwQwKxAJ7HGcd/u88rNA/KRFxVhNwBLJ8llZXPTC1AfXDhqj1V5f+ihA5yuqlhhDHF7Z0K7EE6N0CcDn8+0LxqXKew7xEluROCIUaX44HeMP9GZnC0UCvxQ2TCegRUHpXiKDj9bGX6PRKGCawnE1a+5/t7N2wUDGHwAkKGkcABmWHg7Vu1xA4mkjlvi4L5jw2rb6imruZ8JMoB8CUOXVLSLmG1XVu1IBEO8xrwQwRqntBxZNnnLA5/1+/4eZXCcQCHR09WyvZdAjFhXNBHDL5NJJJweDwfV6nNJoNFZSV1dnMFCh7AacnQBAl8t7JsD3DP5NmVQAlB0UXQ2gS0HRRvcFE95OkK921Jetbasv+2NbfWldR13Z3p9+qbwh+i7AjyirIOIL2+ZVTFdxaZUxACSILmalXYeePaB0/y9lci75zvRF5H/J5axNEPiSDC61XgAXJnNXaTQajRV0dn5UJoAiZfY/CzkAvE6vVzIeS8UWUX8egJsh2+vxJoDjFBe3goDLAbqc7ZDt9WWvEbBEQi4hol8x42JFk2qDSN4G4Oxh4wFwu90nMHCQwsZYZyuii6wy/jvLzO6ebQsYCAzx9y/ETfsx2vhrNBqVCCGnKr0+sVIB4HT6jpDAU0hyYmVSQdK7FbCfuDXO9hHRAkA1A9cSxAvMCAKIKbzfF9ZeMOWYYSMAIMUZKmufiW/1+/2bVFy7tbU1Lgw+l4G1afwsAeCGUCTw+eXLX9yghyeNRqMUU05TeXlSuATgq/GVCch/AEgn2c04p3NmP0seYlWOW2OvVIXMUJvDIPGD4SMAgJMUXrs7kYg1qGzNYDC4kYQ8C0BPCl/vFMCsUCTwY6QZhKjRaDRDMwlQ6wEoFko8ACecMGufhCFfAFCedpk4dmRysZJ1D0DWYcI5HReWWepVVyIAHA7HaADHK6yLfy1fvlz5ueChUOh1ALcO3CpYbCsSRwcigQA0Go0mewJApQfgExUeVofDMbrIFn8awGFDNFnJ4wBE4QsAAIIlf8nKCyoJArTDfpgE7Or6PTqyVeM7erb/bHRxybnY8xCjBIGuD7Y0/xxpZKHQaHKJw+EYXSyL90nYE58FjwkhWEq5KRQKbdJ9eThNCVUKAOvd/3V1dcb6zg8aAHYOuVSUPCVw2aLOaHt92SYAEwpc9X2JgRvJovdUiQAwBT5HrLLfk5Gt6m5tbY27XL6vEMtl+N9JW+2CMS/Q0hwZaWNOdXW1fZxt3CRTmFPYEJOI5SRm2menr4wCMJpAHzPz+4D4QEB2imKxPtOtmprBqampGW8Yo6YbwBF9B6gcCmASgH36/huTMCQg/+f8kxIABNxOL9CbPrsDhDaWvIIgVpowXm5pWdqpazfvULcEYH0OAFrfuWEhgLMyHPuPGODTlQC5C7zNy9vOn3wYHlv/n7wVAAJUyUonEnxoNms8HPa/6nJ6fkegb4DxTMy0X/ryyy9+VOiji8/nm2D2mDUQmMGMIwE6EsDnEpBFAPUmN+4nKJfxadoMCQlAxiTcTu86MFpB+BcT/kUkg6FQ6BM9jmfURvvG43IWSZwMwkkApvXV/lCZDGAyGCcQUR3AMJCA2+ldDXAzWDyzI7btudbW1i5d+7ljzow5JV3oVpfCnK3dAeB2em4HcJkFBTvM5/PZkqdTFysBLnQBAGHYfADyVwAw896K6+BzLpdrSjgczlqe6oQZu6HIGPWfYEvzvShQN+ncuXOLt2zp8hJ4JhgzEzFZDSLDwqedAsIUAGcQA2CRcLs8fkh6StjxdCAQ6IBm8MHU7T6E2LiQmU9LxOTRBAj1Sb0xDaBpIL50dHFJl9vhfZbA9wdbgi9ghAe++nw+m2ma+zHz6F2mvHEay3ZOaSmU4hRnO28DkAiFQu2DfX/b2NhUoTCVO1t4DLDbWftVgL9n0eWKZbc8OKkBJKwcIQtYM6y6kKpEQKrPMTaIja8CuCFbNd4XdPj7QutJdXV1xvvR930Mmrd18/ZzSH3b7dr/mGaDMFsm8Bu3yxth4G67XTyhD0zaw+hPZKbzBdPFLOHg3I50Y0A4j0HnuZzetcS4c8z2Ufc9/8bz2wu9HWZXz96ruyg+B8QuBo4h4LBETO7fa4t3tcdsAJCp2eidvrsawKAn/BHJaSq7AFu0BdDj9FzA4N9YWTZJdEQyAUDEq3hECAC27IRARQKAKQvnDH3HW+P9c2B54F1tHtLH5XJNITa+un7dhi+D6IA8KBKB4SLAlYjJDo+z9rcszD+O9CUCt9t9CKS4FhLzCSjOt/GNgCoQ7twxtvuHHmftz4wiutvv93cXUhvMnTu3eOumrnNAfGk3Yj70BTgrGeFSXXuXPA2kboy1mZl7AFyu2pOY+UFYvNuMe1MCN+0xKzTlygSJETAq8L5WXUlJbTGEmYVaGC0NapozY06JNudpKHKH5wS309NAbKwFcD0YB+RhMcsZfAekaHM7vdfOnTu3eKS1k9PpO9rt8D4GKf6D3rXTvK4DBvZh8B2JmHzb5fKeXwhtUFNTM97t9F6/dfP2KIgbAJwMhbub+uZOKQkAIlKZA0CW7F3SntE4U+OZQcxPqOi3/aUEntK47kMQ3i/0sYGINue1B4DAWXIF8lFdY3vuA1APvX1pMINyhCB5IzPqhlGxxwG4fevm7V9zO7w3hFoCD42IGb8pfgHI00FZWNm3ngpiPOp2ei8SNlw5HOM6fD6fLRHjrwJ8M7K7JAakmn+fMVVh7+hcvHhxz1B/7HTOPJCReB6qtuSJAVLMM6200kWel2KbeWNeewDA2VRhfIHL5blOm/jkeGu8B3uc3kcF5BsYXsZ/F48ACH92O71LvV7v1EJspzkz5pS4nd6bIcUbIJwBDEvjvzOnyQRWuR2184ZToT0neo5NxPhVgO/KuvEHwAKpLQEQqUwCNOT1/5qaWZME4s+hd+upIv8E2gb4dMUIGNaj+S0AgHXZrA1ius3j9Jymzf0us5hRbqf3ZmlgBQPnF4BBAYCTZAL/djtrLyqgpiKP03NJ17ju/wK4CXnu6k+TcSBucLu89w6DZRzhcdZ+jwW1AHxUDouRivElMFepc0LQkNb/XS7XOLsR/wdAByqsoE2CcW3/s2N6Ar3nshQskvFSXgsAFuKdbL81DGp0uVzToYHLVXtSIiZfK0CDAgDjAX7I7fI+7vP5JgznB/F4PPt5nN6nGPRAnsZiWGVRrti2eftLTqdz/3ws3pwZc0rcLu9fGHwHFB6vm9LgLnsGFQC+432TQFAX+8QybQ9AdXW1ndhoAnCswurpYqIzA8sC/e6Br2xsDwmTpxPjJgCtKLyl4e3xTaPDeS0ASrYWrUD29waPIzaeOOGEWfuMVMPf60b2LCTmpRhyru1hY1TqEjH5ssPhO2g4Ft/tcJ/OJq1k4MyR0DcZcAjYWvKtvXzH+w7oGtsdAlt/1voQ2NzS0vLxoCLBpvYUQIi0twDS6FEl9wE4RWGpYmDxxXC4OTjYF8se63ynvDH6o4qG6HFkQzmIrwSwGEAB7E6hvx68+L89ljW1iiI+/8bz28F4Kwe1c0ixLf5MdXX1mJFm/J1O3xFdY7tbAPrKCHrsg20klzmdtY7hUuC5c+cWu52e34HE0wD2H2HddJpBMuDxeD6XD4XxeDyTEzb5IvY85yNXIiklw8vESgWAIdPbAuhy1P4SjIsVFikOQeeGWvz/TPeH5Q9FOysWdd5b0RA9leLYm1meScBC9Ka8Hm5IZvqZpVpPmU4BluZqpjG6uORxn89nwwjB5fJ8XUC+CuDIkSZ8GNhHgJ/3ODyn5HtZnU7n/lu3bH8RoCtRGDEZQ2Eym+T3Orw57as1NbMmsYkgCJ/Ll4qhFHcASFZ8DHBCpOwBcDu81xHxt1UaPTB9KRRqfibTC5U3RXdUNq57prwhekV5PFrOLDzM+BkhJ5PV9Mc6QkNlY/uqYSEApMALOayr0xIxeU+hj6TV1dX2Xpc//QaFt9afDmOZ6BmPw3NWvhbQ6/AeSbAtB8MFzX6SsMTtdh+So/dmjN2IP6U4WG0IYpbeS0kokFIBsMP/in9DahMP73wQfqJW39OVoZbmRsvFVhPMysb2UGVj9NryhujhDHEgA98CaAmAeB6+M1HD4G9ZLvZUlXb8+JLnAGzOYYUtcDu9NxXqCOpwOPYeVVzyzxHm8h8IOxM1ut2+vDsMxO2uPUMSIgRU6Wb6jP1Jir/nIjBw9KiSBwGcmG8VQoS1KX5T9THAgwbOuVzeU4nxIFSeR8D4XijSvDAbdV/Z0L66siF6V0VDx8nCxpMZfDEx/sLA1jzoGnFmMa/soU7LD6BTJgAWL17cQ4ynclxxN3uctQVnIJ3OmZU2si8nYKa2I7swiqR8yuHw5U0ApNtRWwfJfwUwVjfPHtO7gwTZnpg+fXrWIu/dztpv5m0+jNTz76uMARh0GcLprD2eGI9B3VkyAHBDuCXwi1w0Q9lDnR9VNnQ+XN4YratYF92bWXgIuBtALpJa9YDpvMrG9pCKiytNnGwS/SH3gwzf63F6Liicmb/vIIFEgIGDoElmVPYRJBfX1MyalOuyuFze8/pSyNp1y/TbYK69J+xzR1aMv9t9CHq3+uUnRmJQAdAnlqYobJDVg48//KxKQUuEO0ORwI/zoUnIj0RlY3uovCF6VUVDtEJKeSwBNyM7Www/EuC5FY0dyibSSgVAJNLcAsbyHLehYNBDbof79AIw/ocZJP0AKrTlGOClBaqKjPhDyGGgncfpuZAYDYpnSYWhARjfcju89aq7BUvxewCj8rQa5Lhx49oG+9LEiROrABjq2oLX9C9oXVMEyRegdvfK74LhwLfzta9WPbrutfKG6C0VDdHjYkb8AAZ/iYBnAfRY2lkJfycbjipr6HxJ5fMoPzqJwLfnQbvZQeKvwyFSfCDl3Wf8S7XJSMkTMMftrL0yF/d2O2rrGPSgyoG6AFXb7xyOmcr6tsvlrc/zJbPU8u+bNqVbAAUlXwKoqakZT2z8XWUcC4MeCUUC3xguXfaghzd8UNnQ+VB5Q/SMUfGefYlxLoA/YeipehngF4hwavmi6OnlD0U7lc+OVd8g2BJ8CsCyPGivIiZ6Ih+DxAYfvFxTDMjnoTK/dmHKgJ9nOx7A6aw9HsTa+KfPXgYllCwZ9map41vy/PlTPAWQlW4BpCRxCD6fb5TNKH4GSvMl0FP2IroU2U8gZwn7N23cVt4Y/WtFQ/TyioZoOQw6si8B0Z8Y+DeA/g7I20yEvzNwnTTN6RUNnXPKF0UXZ6vc2XFPCnENpAwg93ufx0DKp91u90mhUOj14dCxfD7fhERcLobarT+FyhiD5AMAnMhCSlCv1ztVJvhZAGN01Q+J0zxOzwXBSPBRKy86unjshQAfmM8Pnmr+fcmYSgpHUVOYa3cfvRMxfpgAr8LHf2HcXmMuWLx4ccHk8K94uGMlgJU7/23dgiljurfxfsQ0mgz7ZqPH3FTeFN2Ry3JmzSC7nZ77Abo0T9pno5CoHSindJ4Yf1s8Jp/LQ9dlFwHrGNgE4k29I5jYD+D90Ls+mFfr3kw4PxwOPK7yHg6HY2+DiiIAH5onj72JgP9I0HtguZpIbAawDczdIBpFwAQJuRdBTGPwoQQcmifCZf2Onu0Htba2dlk39tS+CnB1XgsA5hvDLcFbB/uey+n9CwFfVDUuhiKB/Xe9n+duAql0y0fGbBs15/k3nt8OTdbJ2kBtcuK7BtnnID/WsPeTAs85nTM9kcjStnxtHDMuf5oHxj8OYBkRLZHgV6W0vd7SsrTftam5c+cWb96843AD5tEAzWbgZOQ45S0xbquurn6ytbVVVYIPMmB/JMfGfwcI/2Tw88xGKBLxv4k03Kk+n89mdps1kjCHiM5G7rJKTh5TPPbrACxJeepy+Y4Dy7w2/kD/a+9JUBcDwLsuQ7id3psBqDT+/7YVidO08R8BHgAA8Dg8tUy0FFmIPUixx7/HJL3hcHhdvjWMy+U9jxiPIjfLJnGAngNzIwvzmXA4PORkGHV1dcb70fdnM+FLAJ2LnG2Jo6+FIs2/U9KvXZ5vM9OvctGBQfwig/5YsnXU360cSD0nelws8DWAzs/2+0rARzGzZ9ry5cu3ZD77994O9H98bN4IAIYr0BKIpPA8nwCYoKg7NYYiwfo+r8kCgFVu414RS9hPevnlFz+CZmQIAABwOTy3ENGNeVQHK2MJuy+fOmLfdr9XkP3kMR8w8732hPF7/yv+962+uO9EX5VJ8lomXI7sLxOs/2TzR1WrVq2KWWr8T/Qcy4IiyG4q5gSAhyTEryMR/0qVN3K73dWQdCdA2Q6e/WEoErjNAgHwH2TvZMx2EDoATntdlwTqg8HgxoHHBcfeBtmVjVMM/kk4Erze7a49A5KfUPWOEvBfGOwNBoPD8UAeLQAyvafb5X0sn7JxEfCKJHNWJjNdy4ykz2dLxGQYwAnZnHEx6Ce2Ivqd3+9XfmSm1+E9UhLuAeDJbjtzXTAS/IuFbTU2EeNXs+r6JzxpSvGDlhb/W1l9Z5213+5LopMt4dZpKxJVfr9/yIFhHo9nPzbpA8Xl3AbgLmHDnwKBwBqVN3K5fMcRy1eUNTLxVySMlcTyRaiLB+mwSeH1L/Ov1eY39+TCFc87urdfkgcJgnZSvjie2Pibz+fLeZKQRExel0XjbxLhzuKeogNDkeZfZcP4A0CgJbAiFAn4iOj6vtlsltqZFlhaeXF5axaNfwcxfz4UDpyTZeMPAByKNP9KALMAfJile5bG4/LUTC4gpThOcYdaDiGnhyKBG1QbfwAgyYp3AokpxHKxQuO/3mQxUxv/kS0A0Nra2kU2PhvgfArAOynRIx+vrq7OWdpWr8N7DIBsLY+sYBInBsOBby9pXZKLQ5tkMNz8EwGcguwdGjXL7XZbEkTldruPYsbXs2R/H4ibPUcEW4LP5fIFCUQCAcGYA+CTrLgdGAsy+z3PUOiJCZuInxQKhdqz54dhpUmAuDdXwgRFl98kIU5tafH/V5vdES4AACAYDK4XkuZmazBJ8aU+Y0xxyQM5qheShHuRjSA5xp9MjteEw/5Xc13lgUhgKZnsBbAhK/1dikst6Sks7oF6d3gPEX8lFAleZkVAnCXt1RJ4TYJOAZCN/cuf9/l8+w69m5Oq8zI2keC6lpaW7O7hHr65QLZI0JxIxP9vbXK1APjfYLIs8B8BnAWL8yhnZhsx3+30/Dbb93W5vBdDves/QaAFoZbA5VkfvAYSg8uDb0iIz2fDE8DAaRnP/p21l4DhUlzUDyFkbTAcvC/fBo1IpPkVIv5mFm5lxONyyOm7iaUSAcDMv8pJABsrPQVQFTuI+cxIpPkVaLQASDIDDPRuEVOfqS2NoeNKl9OTtdOoXC7XOGL8VPHgsZ0JXwhGmv+Yjx0xEvH/WwDnADDVTqJwdCYnBc6ZMacE6s+3WM9k+kKh0PJ8HTh6hQk3qp/0YuhxAKTGA2DY6cGcjEoYdh6AGBPODbYEm7Wp1QKgX8LhwGMAvp9PFUOgH3ictd/LjrIX1wGYrFKFwxCnh8OBf+RzZwxEAksB3KS6aYuM2MlD/XHX2O7/g9rERutNFt5wOLwq3wcPCfNbUO216Y05SHuccjgco6Em6djqQCCQ9XPh6+rqDB5ep4CaYLow38ccLQDyhFAkcAcR7synymHw7b0JMdThcDj2VpxqMw4W54RCfv9w6JChSOCnUHx4FANzhvK7vl0i31FYtK2CcdpwCZSKRCIfELFqT9m+Lpfr4PQn/8UHQsU2Z0ZO4mY6Oz8qA1A0TOwKg7Eg1NLcpE2sFgApEwwHvtN3jGr+OALAv/M4PaepawDbVQDGKfRkfC3U4v/nMOqTEkL+HxRuDySQY0hKqsf8PwBTlD03i/MCLYHXhtMA8vGmj+/C0I8/TRHj6LTfK+aDFXWed3IyEJE5XNb/mYm/GmoJ3K/NqxYAaXee7p5tC8BYnEdlMhjU4HK5plt94ZqamvFE6mb/xPhtvq75D+gFCIVeB/hhhR6AqX0u4pSZO3duMRFdo/CxfzLMhBoAYNWqVTEw7lE6SEk6Ku2+L9QEABL4vZwIAOU5AKyy/vheOBy8V5tWLQCGRGtra3xHbPu5ACJ5VKzxxMbTmWxJSoZNFC8AMFHRTOWNsRNKvjtcO6aE/ccKvQCGHfa00sNu2bL9C8pm/4SwrUjcMlzbykR8IYAuVddnSn8/PzMpEgC0OieVTMNhBwD/KtwS+IU2q1oAZCoCumxF4gsA8um43mmJuNno8/ms2vtNRHS5orLGKMEXLV68uGe4dsxIZOl7IDyj0Kik5dEhhrK2YphfziTlba5paWn5GKCnFRq/8iH8Ss0SgA1rclPLnPcCgCHGa5OqBYAl+P3+D022nZxX2QKZZidi8gYrLuVy1bpVpZFlpruCy4NvDPveSfSAurYUn0v1q16vtxzqjmX+WTgcfnvYtxXjcYXXHsq2TRUegJ5AINCZo5ch75cACPxlj8NzCjRaAFgzs1jaKUw6GdnJEpcq17tcvhMteFkuV/QWvp+Q3bcVQue02WgxgE2KrErK7nwzzpcDMBQUIrqjZ/tPC6Ktimkx1C0D7JvOWNW3W0PFFsA2ADJHVTwcYgCIiR7weDz7adOqBYAlBJYH3iXmM9F76lZejHXE8v7p06cPeUuOw+EYDYkvKimdxO35kjY2U/x+fwKMpYqEUsqDFBFdqGhm+4vW1tauAmmrbla3fdPw+Xx7p/rleDx+oJKxjTgn6/+9yacwaZh0hcmcoD8jNyfNagpNAABAsCX4sgC+gPxJGXz4xPH7DHk/uAFjFgglCsr1wY7Y9j8WVA8lUpVFLCUB4D3RezhgfQAWAR/ZisWfCqqpgICyi29P/dwFIYWa9X/OTQBgd0n3tGHWEea6HN4F0GgBYJknIBJYyoSLkTsX3O7c4Dved8DQXhBxhqIy/b5QZpSfVZWUrWom35RSwJIUNFfN/XGv3+/fVkhtxUQv50c5hBKDScRrc/E8phh+hwAR4VcOh+8waLQAsIpwOPA4M76aJyq3JGGX1w1togQViYWkhO2BQuug0pBvQMU5EcwpLuHwqSqey2TxSKG1ld2kvNi1Q6xozzwjN1sAJQ/HQ4DGGCQXZbJUqtECYE8R0BL4AzPfmCfFucLlcqW1N9zp9E2HigAl4qWRyNK2Quug4XB4KwDrc68Tigf7is/nGwvArcCQLG9p8b9VaG3lX+ZvA2O7imvvEAan0bZqPAA5WgIgouF6DPCxE/fa50fazGoBYLEICN7KTL/Og6KMIjYWpPcyyxo1swR6qmB7KUPFwTiDRvWbPWYNMLhQSHtAFwr3zOe6pQjrVFx49Ghzc+qFUOMyF8UiRzkAaNow7hPXeJ3emdBoAWCtCGi+Ok/ODVhQXV1tT30WgRNUFMLG4u8F20sJluc0YGBHCm/HsUq0GmhpwbYV2Potu4ztfr+/O+XeAlQqeLCP/X7/phxV6tRh3CGEBB464YRZ+2hzqwWApcNCnpwbMHlM0Zg0FC5Z7gEg4L/+Zf61BSwAJlh+SR58z7pkMUPB02y123NzolyWXAAfKWj/T1L9qu943yQAYxQ82uqc9X7mKoUtFgKwVfEzlBbZEvp8AC0ArOXTcwMIaMmxhTorlW/NnTu3GGDLDxViwssF3UsZZQqG1a7Bv4JjFDzNiuGc9jcFYaVgq27qoiJmVxQASLlJAew73jdJ0Zbh3sci8RIY38rCS3yu21l7qTa5WgBYLQK6TCTOQo5O6eozwClt69uyZctBAGyW31/yKwXeTy0PmiTgg4E+7z0t0PpUzQx6p5Abioli1l9UpuwBEAW2A0CZoPn0sRhr+o7uzcISIt/lcPgOgkYLACuJRCIfSNhPwSCDukoD5TvRVzX44CTU7IsVhW1UAOs9AMxYP9DnhmGUqxBrIFnobaVglkqpxxWQmvVy5tx4AIjUbgEklqt7hZu5AEh9qWWIjDNINqYTM6XRAiBFEbD0PQk6XdU2pMGIG4NH9zPocBX3NsxcnVCmnpqaWZPQmwveahfA+oEHfENJ6lXBKGgBQMyWr78zEE3jy2pmzIIKMgcA2XufKxwOryPi72XhiY4bVTTmBmi0ALBeBDS/AtBFUJE4ZlB7gqNT+I4SD4AYJToKtYPabPEaNe018JIRSRyg4r4maCsKGWG9ACDizjQaVonBlJJy5AFQugMgNmnSpM+2bQbDwT8BeE79M9ENHoenVptfLQAsJ9TS/CSAXCSfqEhhJqPCAxArtJSyu3RQSScquTDjzYEHKalEABjMZmF7AMjy7V4sRTT1ZlViMM0tWza256RCWakAWNvU1GTuUtWwXQH1uwIEEz3sdrsnahOsBYD1IiASuIWAbCdbGWzvMQE4RIHnoaBnlEysIm8Cx2TsrYHHXdpfyUxSCFnI7SUBy4+CFUjNA+Dz+WykIF4E4OiqVatiOalQUpoEaA+vRiSytA2M72fhycpZGndrE6wFgBK70ZOwXwagM2s35IEj1d1udzmAsdZPEJScU58X9EbiQ8USwLspHJk8Wg8PQzBXKo6ttaeWClpKqSZwE7lZ/+8LlitVd4fkxxuHWgK/A/Ci8s4CvtDt8Nbr10YLAMt5+eUXPxJAPYCsuFxpEIMhpVB1Mtaogu2cwn6GGtFEkVR8D4oG3SmF2l5Op3M/BcJpl3XqAUkoc5fnZP2/xFZSBYUCn/rPbcDChq8AUL+0SPhdKjuoNFoApE0gEggA/FCWbjfgwGco2FP+qQCYXT17r4KcTjLNU9TpBxUAzEKNABieJ7ulhMGGioG8bbd16oGE3YGKHi0nHoCEoTgF8AC5DQKBwBqAbsrCY+6VMOQjdXV1BevJ1AIgh5hs/yEweNY3CyjK0eCEruJEeaG1m8/nmwDwXCXjnjBfzNVzKY7qzilSkOUCgNKZfasKmCvQHACQAz9XKNJ8Z1+qYLUwXOs7N1wHjRYAVtPSsrQThIezcKtBRIY6AWDAPKLghFvMvAgKTuID481QKDTojI4E96h4LgIdUajvmmDrBQADa1P+rqokQELk5hhgtTsAYIwyBnsuySQvB9Cdhce92eXynQiNFgCWv0iSG7OgYgc+rpQVqnmi6gKb/Y9i0LVqmolSS3nKtFHN/VHt8Xj2K8T3jCGrFFw2DeOr5h1jjuXoICCh0gPwSSqnG4bD4beZOBvbqm3E5iMul2ucNssFIAB8Pp8tX1I+BluCQQCbVd6DCZsGnvipU/PMKKjzts2Y+RUoin5mQlNqM3WpKq204ISYXZCjiQoPQHqH8FhvMBnbI5HIxhzVqEIPQOo7G+x24+dANk6wpANJGr/WZnmYCwC3u/aMREyuGlM8Zn6ePKckqE3BStS/q9LhmDkFareVHe1wzCwthA6pcvYP0Nu92SJTECEgdedKkJyLwqTS6gsKyWtT+V7fzFFFyujVyEFmUZUejT5SFlZ+vz9BJn8ZgPpcCIQvu1ze87VpHoYCwOPwzPI4vS9D8tMADmHQ1/JncpL6WuLQ+i36TS0rhKk68lsYZBbES5OImbcom/2zXJS6oDMV5pCgL/p8vn0LbCwhECz3AMCWmqEiRQlzKEdbAPt29ijMlCfTWtYILg++AeCnWelIjHvdbncFNMNDAHhO9BzrcXqfY6IlDBy/00fHeRyeWXkhAHjgKP3Mr0/v9lvJLA/MwhNegWEe0+F1eJ0AXa3o8nEJ+/2pfrm7u/sdhTOeMWacv1pIA0lNzaz9AVh9DsDWYDCYmvvdNNSIbMrRMcBFMaWThjSXVnq1WJG4jYHXsvD4E1iKh/XWwDwXAA6H7yC3s7aRBb3KwJzkHY2+nw8PSsB4ldeXoJf7v7nIxt7vQ1wu7+eHa0f0+XxjJfFDUJT4hIDHW1qWpjyrb21tjYPwljrByF/ry3RYENjtPVUKLrs2jWmjogDA3BwCxIq3ADKnn93Q7/cnGOIyAPEsjNfe99e9/x1tovNQAPh8vn3dTu/tBsmVAF/Q2179MsvprHXk8iH7lOQxCm+xpbR0vxUDvG1ZSf5CjFuHqReAEjFzocqtkpLEnUMYJN9Q+Mz720TRNYUykDALy9f/03K/qwqyZTM3OwAUnWr42Wx+iEeIRyL+f4Pwy+z0Kfqx01l7vDbTeSIAZlfP3svt9N6W6JFrAVyLFPdpE/jaXD7k+vXrjwYwQeEtWgbKVsbIWvKXYz1Oz8XDrRO6nZ5fAGqy/vUpo3+Gw/60o5gFyX+pHeD4eq/De+Rwaac5M+aU+Hy+pKmnVeQASMv9LtUYTBacGw+A2hwAsmTvkiGfbjhufMnNAK3KQjXYBfjP1dXVY6DJnQCYPn16kdtZu6C7OPY2gOtBKElTyZ+ZUyUnxQKlLyvxs4N8JWvZ3xj06+G0I8Dj8lwDkFpXH/HNQ/mZycYLih+/yCT8OV+2yw6Ez+cb2zW2+8mtW7eayfudghwAzKkLADUeAO7u7s6JAIDajJHRxYsXDznR1eLFi3sgzC8jO+esHD66uOTn2lTnQADU1dUZHqfnkol77fMuwH/A0E/6IsF8Sy4esKZm1iQAF6m0uYZBfxtg4BwF4IAsPvIEQ8QfHA4BNG5n7TeZ6Q7FiuiZUCi0fCg/jUT8KwFEVRaPgGNGF5fcmc/t5HA49jZjcikYB7W2tsb7UcGWCwDmlGffBCjYgUDY0Nra2pWTSmeFxwCnI6z6IRQKLWembB3n+1WXy3umNtdZFAAul/fM9Z0fvM6gBwBUWPAyzXW7a8/I9gPajPg9ULsH/5VAINDvcaU9PajCwDESKgaP2e+v23B7vna6uro6w+303gXwXYrrJgZDfjdDAfFcNgY4t9N7Uz62lcPhO8ggezMDxw/oklewBZBsqQWq+Wp8pVBxKiYjRxkAIaAgp8L/Ktaa4427Y9tuAPBuVhwijPs8Hs9kbbIVCwC32+d2u7whYvwN4OmW3k3K3zgcjr2z9XAep+cSAr6ouGv+aaBPDRUzk5REPr7b617PL+bMmFOyPrrhSQDfVD5oEO4OhUIZJYBigaezVDU3u1yer+dTW7lc3lMNki8D6Du/oN+ZIykwWNzV1bU2lS/GbazmDABQTgSA1+sthYpzMP6HJcsara2tXYJxCQCZhWrZDyY9mPXJ1EgRAN4TvYe7Xd7HIWUQDJeiIbnSELbHsuGe9jg8pzDoXsW32cqUaBzYgJhVuWpcZvqZy+H5Yb50NrfbXdM1tqcVhGx4gjpiiZ5bM72I3S7+AcL72Znl0G9cTs/duY4JmD59epHL4bmFGM9gp2Q0/e0dV5QD4P3U3e9qdtkIyk0SICTUxgyxhc8VaAlEANybjWphYI7bWfsNbbYt7ONO58xKj8P7oBRYCUad+lak2evXbbhN8cz/i0z0lGIVDRAeCofDWwce1HN7/CsR/cjlrH0gl3vO586dW+xx1P4EUoQBPjQrgwXh/5YvX74l0+v4/f4EgAez1l6gb4wuHrM0V+5Ot9vnnjh+n9eI6Ebs4SFMPiO22UwVfTxlI6XqHeMcHQPMyL8cAAMxZtuo7wHZWi7hn3lqPDO06bZIAAgkGpjwJWRz/zjjOrfTcwcsdudUV1fbPS7vrxnUBBVrgrsSt5niFylYoqpcNzKBLzHIvtzr8B6T7Xu7XLUnbd28/RUm/j4UJflJUukPh8OBf1j2kiRwP7KaD57cbNIbLpfn/7IVzOl0zjzQ7fTcDykDIHwuHcNB0noXfHrudzUGk1jmZAlAKp40mKbN0ud6/o3ntwvgK1l6R4rZEA2FlEQrpwKAGQ/lyCx9z+3yPmhVQ3pqPDNGF5cEmPEtZGWdiB/xL/OvTcH6VuVJWx8pCS+7nd47s3EcrdfhPcbt9P6TmJcCyN5ed8aaUT3FlroJA8sD7yLVY4StY19i+v36zg9aVabTdrvdR7mdngaBxNsAXTrQu1NU1E9WPAVZ69Jyv6s6B8CemxgAUrsFsGv58hctP+gqEAksBeP+LL3k023C/hNtvq2Y3MieRjC25+TujIsNsq1wOr1zhnoJX42vzOWsfYANeg3AiVkqecxkI9UOODWP2tsG4Co2abXLUfszt9tt9cApXC7vmR6n9zlJaAVwSpafLw5DzlvSusTyo59JypuQk1Ph+CgmWuJ2ev/jdniv8vl8YzO9oq/GV+Z2eK9yu7whSPFaXxKmwTwNW/x+/4f9fKbgGN40Zt+sJAlQbNKkSetyMzcilUsAyk43HBUruhqKt81+1uSMq1wu76nahGfY1QDA7fTc36f+c1mQfwC8sKun6x/97jX+dADz+WxmzDyFgfkAnQ317v7d+WUoEhh0e5nP5xubiMmtedz+EsBLBP4b2ejZQCCQ9ppnXV2dsaFzg8tkOh3EdYRcejzo6lCk+VfKZssu7xNgnJ3jNtsC0FIm+aJh0ouBZYG3BhvQHY6ZpTaKn8ggLwMeAo5G+l6yf4cigaRLSG6H5yUQ+SxtSWZfsCXYnMI7NioRk12w3uv3TigSODQXDex2etcBUBMDwngm1BJQtqfe4/ScxqBns1RVH8RN+4zly1/coE350GeEkBB/FOCcCgAGTgXo1NHFJRvcztogwK8T88rez4QdYHvv2iQdlYjJGoD2y1FRPxjVU5RSdHkshqo8T8wvAMxi0CxO4G630/sfAv7FwAomrCCSG6Qs2mSatM1m6zaEEBMoQROYuIKJjgL46PWdG04AsDcRI7f9hx4JKzT+ACAkbpKEM5G1WIakjAf4LGI6SwrA7fTGALSBuA2gT/5nQFHSl4J6KpAYxX32kYZewauzOWNN1f1umuY0gFQs+eUkALBP0KhLHKb4dMNgJPh3l7P2EQJfmIXq2t8u4g8AOA058c4ViACIRJpb3E7vqwCOy4MyTQL4XADn8mfvNe8qFXJpaAjfSdXFLDhRBRpWZ/MczsDhfQYEYAGBBIQBgA2wCTD1mRHOyJxYzauSYwtU3yTQEljhcXl/0xdnki8UATgYTAdD4VtCIrnhmD59ehEAq1NP9wQCgZRObuQET1Nj/zk3AYDdciqEwhcrCzsb4gnbt4ps8ZMx9Myx6QiauS6Hd0G4JfAHbc6HNgPsq0e+R1fHoC/P4nA4sCjlvkk0VVea8kZ5jww+s6WlZUc27tbVvf16gN8bcbXcz7G4EydOrFLgEWlDisllVL1jlKMcACwUnxxqqA9sfPnlFz9iwoJs1RkRfuVw+A7TY2EGAsAoMh4F8IGukn7ZBEP+X3p6IW92ABQqncJGJweDwfXZumFra2uXAC3ASHM59rd33LRZb7Ao9dm3ZKHoGOCcpQFWKgCkpKwIm3A48DQITVmqszEGyUV93ijNUASA3+/vBrBQV0k/YxL4ylAolN4RmtoDoJIPyeA5QwlczJRAJLAU4HtHUmWziK9J3sUVpOFNx01NimbMMjceAGWCpo+iIqzN1rPY7OKrWZxUHjtxr31+pIfFIQoAALDFxT052xKY39b/D8FI8NG0xzHWHgBFbGUSc4PB4Ju5KsCOnq6rAARHSH3L8ePHr82WAU4nUx0pmjEbo4xCzAGwwe/3b8vWs/j9/g+Z8J0sVt81Xqd3ph4ehygA/K/43wfh17padiEybnzJVUPTDVoAqLC9TPSFcNj/ai4L0draGrfFxXkAOkdAnXf2d348SyhIAsTpzL5VGMxP/H7/ptxMNtTFABCyv6wRDgcWgfBktuyZBB7K5oFzBSUAACBu9vwcwEZdNQCAjrhpP6e/wW8gfD7fBOx0kIrGEj4mySeHw80v5UNh/K/435egOgDdhVzpPNCWOFIwA0/R/e50OvcHMFbBI6/JYWWrnDTkxqsh+GsAPsnS7UoN2P+oh8ohCoDly5dvIeIf6KrBh0LilKEmmTC7zWm6Ci1lHZl8UnBZMJxPhYpEmlsk8AUAPYVa8TTwrgfL+3mq7neiIkXvWG5SAPel6B6fEyGnkGAwuB6M72axw57jcXou0UPm4NiSNlg4+Ce303segJNHaL1slaBTQ8ua/5OBtNIBgNa90a+bbJzWsnxpXrrbI5HA8x6H5wImaurvnRrWHoB+gvJ8Pt++iZi02mB9nKr7naScpmLHfK5OAUQCU5Wm1uDceTZCLYH73S5PHZg+n50+S791u92RUCj0Tjq/q66uHjN69OgBT5GdPHnylqamJnPn79pstq19J4fufj376NGjxwKAaZrd2dquPGQPwGddRcjLAWzByOMTCHlyJNL8SoYqVHsALBHzWDRmW7GrpWVpXq+1B1uCT4HpYgCxQmuD/g7mMXtUeLnS2KamKGCOKHuR8lkdMwyxOrcvM18BYGuW6rIEUiyqrq62p/OzUcVjbocUHw/034aODYcAwJiikl9++rdETCaNExszauw1n37HJux5t0uh3zR1oVCoHUyXYGTtd94gIWaGQqHlFswitAcg0/kQcF0wErjw+TeeHxY7U0ItzY0keSaADwupIUyI97JmsNLIAQBV7xjnZglAkuoxI5FTARAKhdoJdG0Wb3ncqKIxN6RlECUeA+gKgK4A4/t9nfL1z/4GukKMErvnHekG8OWkbwjzpcjj5UExyID2JBHdPEIMzkqbFCdGIv5/WzSSaQ/A0OvubWJ2hSKBO4ZbyYPLgmEh4QWwulBaoyiefFauxGAxp+MBqFJi//vJeaB+gqxUAMQnT56ccy9aMNJ8L4iXZK1OiW7wODy16by/oUjzwlCkeSEM2dCrM3ntp38LRZoX7r5ERcBfARzuOdHj2vnvbrevloGDQPjrsBQAABAMN9/KoEcK3OA8FTd7XP5l/rUWXtT6l5nwfoFbfpOZfm5y7JhgS/Dl4foQgWWB/9iKRE0Wtz+ppMv/in9D8u5Ildbb/7Rm3yoMJtvt9rYcjUMqJw1rm5qazDzoTywMWgAgW/kIBBM97Ha7le3IMoGHAHRJIS7f5UElfxnAJmJ+YtgKAAA8pXT/S4jx5wI0OAkA14UizecsX758i8X1avngaErhAXALCjPifAUxO8Mtzd/Lt0CZoeD3+z8MhQPngPGlLA52Kuj//HgFW9Y4xRz8dXV1BoByBc+7vi8rai5sY5WqK1MutzbuLpADgTXM/MMs3rKcpXG3MiMq5GYCniTw+X3bvzG7evZeBD6HwQ9Lorwdz1I6qq6pqck8oGzSl8H4UwHN+lsh5HF9bmZL4xzcbncZgGKLC9zT0uJfHYoEbjZZHAHgxQJpiA/B+JatSBw7nGf9/RFqCTwkYTsawN+H5Vsy8FJGhfUegNQC1davX18KwK7ggXNlKAVA5cquzvm1JBVuCd4NcCh7/ZgvdDu89ercGuI+AKPjcfMCAOgpjtcDGMMw7s/n9zvls2qbmprMUEvgcoCuAhAfxmPyFmZcYyuiE0Oh0OtKOpup4gwAWou+E9JaWvz/DUUCJzPhcgAfD9N22EZEt9qKxNRQS+CuZFtoCoVIZOl7oUjgdAmcAsabw6joLAkDnX5ptZfL3LJlY0rnbQgplMyW+zv1UDUOx8zJ6D3aWZEFpDV51rckk7wcQPZmx4Tf+U70Kek3oZDfD+At4t5lAO4NCnzZupiyHAuAzx400ny3AGYDaMfwIgHwH+Om/ZBwS+AXSg2OiuAokru/wBwOB/5EBh/GTD/HcHEzE95n4h9AyIpguPnGbOYmz70QCDxvKxZHMeESACvzuKjdDHqQSZwQDgceT/aFvqQ1Yyy+b+eqVatS2kZpKoqYFznyABCZFWrvIPMuKDUcDr+N3iXNbLFXQpgP9y0fqeBBgKvdDu/FAFcT6L58H5PEUH4UiAQCO3q2Hw7gDgBmnj9jHOCHIeT0UCS4YKiZ/dJ7m4X1wTz9BEcFg8GN4Zbm75HB00C4PY+FwMtgfHnc+JKqcDj401Ao9AlGIH6/PxEOB/4cigRmMNGpAF5An2cn59N94DUA37UVifJwpPnSgc5bYGYVBuvdlF8xRSlzc5UEyICsVNq2gtfk4/swuXTSLwh4JXt3JPf6zg3XKTE0pv1BAHEQ7gWwTVLiUeQ5Q85a1tra2gXgOq/D+5gEbgHhdEBpHqt0+QDAQpNt92Y9iQwrOdBjQAUfDAY3Avi+2+3+GUxRT4QvMXB8jg3KWgIeYTIf6VP7mp2qJxxuXgxgscMxs9SgxAUMzCfgmCyWwSTgX5L5GTL4sXB6WdM+AWDpQMpEb6Tet6iKVKQoEblxlbOCHRW7NLRp5qUAaGpqMp1O32UC8mUAo7N025vcbvcSK/K97Mzy5S9ucDu8z4BwDoPuC4fDW/N9EMo4bWmgJfAagDM9NZ4ZbKNrwTgHwKgcPc8OMJ4h4oaPN3+8OFV3ogLDp2B/dGrbo/pm1vcAuMfj8XyOTboYwGkApmdBoMUAhMF4npifDy0LvoaRlUhqSPQJ1F8C+KWvxlcWt8lZBMwE4yRYG+neTcAKBl4h8NIEJ15qaWkZUgxJKBRajV4PYE6wF9E3EgnT8qNmJ0+elJPsp0QsmUWrohGpa6jtnA0iEf9Kt8N3Dkjeit6zJdRPJKV42Heib85AW79tcZtMGPITImxPPiRzF0CfoHc3WW87ghcy6CQS5k7uf4oD/AmQf7sBLK/o2dWz9+oujp8DkvVg8kFxbvTeWSa/wETPdndvX9Lnmcgpbpd3PRgHWDszkUdnErRYUzNrkl0kZjJhJoGPA3BohopbAvQugNcIeI0l/WtMV1HLcMnaN1xwOBx7G0bxDGbzCDAOIYjJgDwAoP0BTMCukfBxgLcCYhPAHwO8FqA2Jqwlkit37NjxZmtra1zXqkajUSIAdsblco0jSbUg4QNzNYiOAbBXBpfcCOLXwfQ6mFptkoL+5f5oPlVodXX1mNHFJdusrlsmc7zFLiXhO9FXYZJ5qBSYSpImgDABhAnEmMDgGEA7iCGZsBnANjDaBSFqktkppWwvhP36Go1GowVAlu7nq/GVSkNOMwlTibEvCPuCMRq7nalORF1g2c7SiArIzu3x7W35MLsfDKfTd4SAXGHxZT8IRQKTdHfVaDQajVVk++hS7puxRwEECrFCheCpCmK6V+uuqtFoNBpL7ZWuAosxFewAIC0ANBqNRqMFQH6j5IQ0LQA0Go1GowVAfsMKzkhnrNEVq9FoNBotAEaaB8AQ2gOg0Wg0Gi0A8pwq6y+Z0AJAo9FoNFoA5Cu+430HABhr8WXjkydP7tS1q9FoNBotAPIUaZMKzgDg9qamJlPXrkaj0Wi0AMhTTKHiGGAdAKjRaDQaLQDy3AXAegeARqPRaLQAGGmQgh0ArD0AGo1Go9ECIO8lgOUeAKE9ABqNRqPRAiDvsVwAsGAtADQajUajBUC+Mn369CIAU6y+rpRSCwCNRqPRaAGQr0ycOLEKgGHxZbsikchGXbsajUaj0QIgTyGTpiq46hoArGtXo9FoNFoA5ClSRQ4A6ABAjUaj0WgBkN8eAKYqq6/J0Ov/Go1Go9ECIL9h6z0AQucA0Gg0Go0WAPnuAlBwCqDUAkCj0Wg0WgDkO5YLADZ0DgCNRqPRaAGQt8yZMacEwH5WX3fUjlFrde1qNBqNRguAPGX7uO1VAMjiy368pHXJZl27Go1Go9ECIF8rkUWV9Vcl7f7XaDQajRYA+Qwr2AIIyHd0zWo0Go1GFTZdBRaYahLNBvhaBluyDEAgNmH7q65ZjUaj0aji/wE8+ffM6SR7FAAAACV0RVh0ZGF0ZTpjcmVhdGUAMjAyMS0wNC0xNlQwOToxNDo0OCswMDowMN6+mLgAAAAldEVYdGRhdGU6bW9kaWZ5ADIwMjEtMDQtMTZUMDk6MTQ6NDgrMDA6MDCv4yAEAAAAAElFTkSuQmCC;strokeColor=#000000;" parent="47" vertex="1">
                    <mxGeometry x="10.789999999999992" y="360" width="127.04" height="66" as="geometry"/>
                </mxCell>
                <mxCell id="71" value="" style="shape=image;verticalLabelPosition=bottom;labelBackgroundColor=#ffffff;verticalAlign=top;aspect=fixed;imageAspect=0;image=https://raw.githubusercontent.com/OlegIlyenko/scala-icon/master/scala-icon.png;" parent="47" vertex="1">
                    <mxGeometry x="120" y="426" width="160" height="160" as="geometry"/>
                </mxCell>
                <mxCell id="65" value="" style="shape=image;verticalLabelPosition=bottom;labelBackgroundColor=#ffffff;verticalAlign=top;aspect=fixed;imageAspect=0;image=http://assets.stickpng.com/images/58480813cef1014c0b5e48e2.png;" parent="1" vertex="1">
                    <mxGeometry x="530" y="620" width="106.67" height="80" as="geometry"/>
                </mxCell>
                <mxCell id="72" value="" style="shape=image;verticalLabelPosition=bottom;labelBackgroundColor=#ffffff;verticalAlign=top;aspect=fixed;imageAspect=0;image=https://code.visualstudio.com/assets/docs/remote/wsl/architecture-wsl.png;" vertex="1" parent="1">
                    <mxGeometry x="76" y="810" width="647" height="270" as="geometry"/>
                </mxCell>
            </root>
        </mxGraphModel>
    </diagram>
</mxfile>